<?xml version="1.0" encoding="utf-8" standalone="no"?>
<!DOCTYPE svg PUBLIC "-//W3C//DTD SVG 1.1//EN"
  "http://www.w3.org/Graphics/SVG/1.1/DTD/svg11.dtd">
<svg xmlns:xlink="http://www.w3.org/1999/xlink" width="576pt" height="360pt" viewBox="0 0 576 360" xmlns="http://www.w3.org/2000/svg" version="1.1">
 <metadata>
  <rdf:RDF xmlns:dc="http://purl.org/dc/elements/1.1/" xmlns:cc="http://creativecommons.org/ns#" xmlns:rdf="http://www.w3.org/1999/02/22-rdf-syntax-ns#">
   <cc:Work>
    <dc:type rdf:resource="http://purl.org/dc/dcmitype/StillImage"/>
    <dc:date>2026-02-17T20:53:17.072088</dc:date>
    <dc:format>image/svg+xml</dc:format>
    <dc:creator>
     <cc:Agent>
      <dc:title>Matplotlib v3.10.6, https://matplotlib.org/</dc:title>
     </cc:Agent>
    </dc:creator>
   </cc:Work>
  </rdf:RDF>
 </metadata>
 <defs>
  <style type="text/css">*{stroke-linejoin: round; stroke-linecap: butt}</style>
 </defs>
 <g id="figure_1">
  <g id="patch_1">
   <path d="M 0 360 
L 576 360 
L 576 0 
L 0 0 
z
" style="fill: #ffffff"/>
  </g>
  <g id="axes_1">
   <g id="patch_2">
    <path d="M 66.09 311.46 
L 565.2 311.46 
L 565.2 10.8 
L 66.09 10.8 
z
" style="fill: #ffffff"/>
   </g>
   <g id="patch_3">
    <path d="M 539.257 311.46 
L 401.495477 311.46 
L 401.495477 10.8 
L 539.257 10.8 
z
" clip-path="url(#p8fc0fc0f2e)" style="fill: #d3d3d3; opacity: 0.5; stroke: #d3d3d3; stroke-linejoin: miter"/>
   </g>
   <g id="PathCollection_1">
    <defs>
     <path id="mb4139b4a24" d="M 0 3 
C 0.795609 3 1.55874 2.683901 2.12132 2.12132 
C 2.683901 1.55874 3 0.795609 3 0 
C 3 -0.795609 2.683901 -1.55874 2.12132 -2.12132 
C 1.55874 -2.683901 0.795609 -3 0 -3 
C -0.795609 -3 -1.55874 -2.683901 -2.12132 -2.12132 
C -2.683901 -1.55874 -3 -0.795609 -3 0 
C -3 0.795609 -2.683901 1.55874 -2.12132 2.12132 
C -1.55874 2.683901 -0.795609 3 0 3 
z
" style="stroke: #ff0000"/>
    </defs>
    <g clip-path="url(#p8fc0fc0f2e)">
     <use xlink:href="#mb4139b4a24" x="404.636773" y="199.175182" style="fill: #ff0000; stroke: #ff0000"/>
     <use xlink:href="#mb4139b4a24" x="406.786721" y="154.87326" style="fill: #ff0000; stroke: #ff0000"/>
     <use xlink:href="#mb4139b4a24" x="409.291476" y="148.324163" style="fill: #ff0000; stroke: #ff0000"/>
     <use xlink:href="#mb4139b4a24" x="415.198557" y="209.658599" style="fill: #ff0000; stroke: #ff0000"/>
     <use xlink:href="#mb4139b4a24" x="419.540065" y="167.333792" style="fill: #ff0000; stroke: #ff0000"/>
     <use xlink:href="#mb4139b4a24" x="427.597094" y="156.073504" style="fill: #ff0000; stroke: #ff0000"/>
     <use xlink:href="#mb4139b4a24" x="436.770708" y="83.851407" style="fill: #ff0000; stroke: #ff0000"/>
     <use xlink:href="#mb4139b4a24" x="443.57536" y="115.069525" style="fill: #ff0000; stroke: #ff0000"/>
     <use xlink:href="#mb4139b4a24" x="452.216765" y="165.901324" style="fill: #ff0000; stroke: #ff0000"/>
     <use xlink:href="#mb4139b4a24" x="454.533562" y="135.203789" style="fill: #ff0000; stroke: #ff0000"/>
     <use xlink:href="#mb4139b4a24" x="462.465354" y="151.802749" style="fill: #ff0000; stroke: #ff0000"/>
     <use xlink:href="#mb4139b4a24" x="466.399889" y="185.67813" style="fill: #ff0000; stroke: #ff0000"/>
     <use xlink:href="#mb4139b4a24" x="482.534652" y="171.769509" style="fill: #ff0000; stroke: #ff0000"/>
     <use xlink:href="#mb4139b4a24" x="485.759575" y="202.013213" style="fill: #ff0000; stroke: #ff0000"/>
     <use xlink:href="#mb4139b4a24" x="491.478698" y="196.753587" style="fill: #ff0000; stroke: #ff0000"/>
     <use xlink:href="#mb4139b4a24" x="495.298551" y="60.78991" style="fill: #ff0000; stroke: #ff0000"/>
     <use xlink:href="#mb4139b4a24" x="504.419999" y="163.96917" style="fill: #ff0000; stroke: #ff0000"/>
     <use xlink:href="#mb4139b4a24" x="512.163833" y="165.734632" style="fill: #ff0000; stroke: #ff0000"/>
     <use xlink:href="#mb4139b4a24" x="519.323292" y="139.284421" style="fill: #ff0000; stroke: #ff0000"/>
     <use xlink:href="#mb4139b4a24" x="531.544425" y="151.114834" style="fill: #ff0000; stroke: #ff0000"/>
     <use xlink:href="#mb4139b4a24" x="536.606101" y="111.279431" style="fill: #ff0000; stroke: #ff0000"/>
    </g>
   </g>
   <g id="matplotlib.axis_1">
    <g id="xtick_1">
     <g id="line2d_1">
      <defs>
       <path id="m27e754094f" d="M 0 0 
L 0 -6 
" style="stroke: #000000; stroke-width: 2"/>
      </defs>
      <g>
       <use xlink:href="#m27e754094f" x="526.733225" y="311.46" style="stroke: #000000; stroke-width: 2"/>
      </g>
     </g>
     <g id="line2d_2">
      <defs>
       <path id="m5f56d26fb0" d="M 0 0 
L 0 6 
" style="stroke: #000000; stroke-width: 2"/>
      </defs>
      <g>
       <use xlink:href="#m5f56d26fb0" x="526.733225" y="10.8" style="stroke: #000000; stroke-width: 2"/>
      </g>
     </g>
     <g id="text_1">
      <!-- 500 -->
      <g transform="translate(513.371975 325.597812) scale(0.14 -0.14)">
       <defs>
        <path id="DejaVuSans-35" d="M 691 4666 
L 3169 4666 
L 3169 4134 
L 1269 4134 
L 1269 2991 
Q 1406 3038 1543 3061 
Q 1681 3084 1819 3084 
Q 2600 3084 3056 2656 
Q 3513 2228 3513 1497 
Q 3513 744 3044 326 
Q 2575 -91 1722 -91 
Q 1428 -91 1123 -41 
Q 819 9 494 109 
L 494 744 
Q 775 591 1075 516 
Q 1375 441 1709 441 
Q 2250 441 2565 725 
Q 2881 1009 2881 1497 
Q 2881 1984 2565 2268 
Q 2250 2553 1709 2553 
Q 1456 2553 1204 2497 
Q 953 2441 691 2322 
L 691 4666 
z
" transform="scale(0.015625)"/>
        <path id="DejaVuSans-30" d="M 2034 4250 
Q 1547 4250 1301 3770 
Q 1056 3291 1056 2328 
Q 1056 1369 1301 889 
Q 1547 409 2034 409 
Q 2525 409 2770 889 
Q 3016 1369 3016 2328 
Q 3016 3291 2770 3770 
Q 2525 4250 2034 4250 
z
M 2034 4750 
Q 2819 4750 3233 4129 
Q 3647 3509 3647 2328 
Q 3647 1150 3233 529 
Q 2819 -91 2034 -91 
Q 1250 -91 836 529 
Q 422 1150 422 2328 
Q 422 3509 836 4129 
Q 1250 4750 2034 4750 
z
" transform="scale(0.015625)"/>
       </defs>
       <use xlink:href="#DejaVuSans-35"/>
       <use xlink:href="#DejaVuSans-30" transform="translate(63.623047 0)"/>
       <use xlink:href="#DejaVuSans-30" transform="translate(127.246094 0)"/>
      </g>
     </g>
    </g>
    <g id="xtick_2">
     <g id="line2d_3">
      <g>
       <use xlink:href="#m27e754094f" x="464.114351" y="311.46" style="stroke: #000000; stroke-width: 2"/>
      </g>
     </g>
     <g id="line2d_4">
      <g>
       <use xlink:href="#m5f56d26fb0" x="464.114351" y="10.8" style="stroke: #000000; stroke-width: 2"/>
      </g>
     </g>
     <g id="text_2">
      <!-- 1000 -->
      <g transform="translate(446.299351 325.597812) scale(0.14 -0.14)">
       <defs>
        <path id="DejaVuSans-31" d="M 794 531 
L 1825 531 
L 1825 4091 
L 703 3866 
L 703 4441 
L 1819 4666 
L 2450 4666 
L 2450 531 
L 3481 531 
L 3481 0 
L 794 0 
L 794 531 
z
" transform="scale(0.015625)"/>
       </defs>
       <use xlink:href="#DejaVuSans-31"/>
       <use xlink:href="#DejaVuSans-30" transform="translate(63.623047 0)"/>
       <use xlink:href="#DejaVuSans-30" transform="translate(127.246094 0)"/>
       <use xlink:href="#DejaVuSans-30" transform="translate(190.869141 0)"/>
      </g>
     </g>
    </g>
    <g id="xtick_3">
     <g id="line2d_5">
      <g>
       <use xlink:href="#m27e754094f" x="401.495477" y="311.46" style="stroke: #000000; stroke-width: 2"/>
      </g>
     </g>
     <g id="line2d_6">
      <g>
       <use xlink:href="#m5f56d26fb0" x="401.495477" y="10.8" style="stroke: #000000; stroke-width: 2"/>
      </g>
     </g>
     <g id="text_3">
      <!-- 1500 -->
      <g transform="translate(383.680477 325.597812) scale(0.14 -0.14)">
       <use xlink:href="#DejaVuSans-31"/>
       <use xlink:href="#DejaVuSans-35" transform="translate(63.623047 0)"/>
       <use xlink:href="#DejaVuSans-30" transform="translate(127.246094 0)"/>
       <use xlink:href="#DejaVuSans-30" transform="translate(190.869141 0)"/>
      </g>
     </g>
    </g>
    <g id="xtick_4">
     <g id="line2d_7">
      <g>
       <use xlink:href="#m27e754094f" x="338.876602" y="311.46" style="stroke: #000000; stroke-width: 2"/>
      </g>
     </g>
     <g id="line2d_8">
      <g>
       <use xlink:href="#m5f56d26fb0" x="338.876602" y="10.8" style="stroke: #000000; stroke-width: 2"/>
      </g>
     </g>
     <g id="text_4">
      <!-- 2000 -->
      <g transform="translate(321.061602 325.597812) scale(0.14 -0.14)">
       <defs>
        <path id="DejaVuSans-32" d="M 1228 531 
L 3431 531 
L 3431 0 
L 469 0 
L 469 531 
Q 828 903 1448 1529 
Q 2069 2156 2228 2338 
Q 2531 2678 2651 2914 
Q 2772 3150 2772 3378 
Q 2772 3750 2511 3984 
Q 2250 4219 1831 4219 
Q 1534 4219 1204 4116 
Q 875 4013 500 3803 
L 500 4441 
Q 881 4594 1212 4672 
Q 1544 4750 1819 4750 
Q 2544 4750 2975 4387 
Q 3406 4025 3406 3419 
Q 3406 3131 3298 2873 
Q 3191 2616 2906 2266 
Q 2828 2175 2409 1742 
Q 1991 1309 1228 531 
z
" transform="scale(0.015625)"/>
       </defs>
       <use xlink:href="#DejaVuSans-32"/>
       <use xlink:href="#DejaVuSans-30" transform="translate(63.623047 0)"/>
       <use xlink:href="#DejaVuSans-30" transform="translate(127.246094 0)"/>
       <use xlink:href="#DejaVuSans-30" transform="translate(190.869141 0)"/>
      </g>
     </g>
    </g>
    <g id="xtick_5">
     <g id="line2d_9">
      <g>
       <use xlink:href="#m27e754094f" x="276.257728" y="311.46" style="stroke: #000000; stroke-width: 2"/>
      </g>
     </g>
     <g id="line2d_10">
      <g>
       <use xlink:href="#m5f56d26fb0" x="276.257728" y="10.8" style="stroke: #000000; stroke-width: 2"/>
      </g>
     </g>
     <g id="text_5">
      <!-- 2500 -->
      <g transform="translate(258.442728 325.597812) scale(0.14 -0.14)">
       <use xlink:href="#DejaVuSans-32"/>
       <use xlink:href="#DejaVuSans-35" transform="translate(63.623047 0)"/>
       <use xlink:href="#DejaVuSans-30" transform="translate(127.246094 0)"/>
       <use xlink:href="#DejaVuSans-30" transform="translate(190.869141 0)"/>
      </g>
     </g>
    </g>
    <g id="xtick_6">
     <g id="line2d_11">
      <g>
       <use xlink:href="#m27e754094f" x="213.638854" y="311.46" style="stroke: #000000; stroke-width: 2"/>
      </g>
     </g>
     <g id="line2d_12">
      <g>
       <use xlink:href="#m5f56d26fb0" x="213.638854" y="10.8" style="stroke: #000000; stroke-width: 2"/>
      </g>
     </g>
     <g id="text_6">
      <!-- 3000 -->
      <g transform="translate(195.823854 325.597812) scale(0.14 -0.14)">
       <defs>
        <path id="DejaVuSans-33" d="M 2597 2516 
Q 3050 2419 3304 2112 
Q 3559 1806 3559 1356 
Q 3559 666 3084 287 
Q 2609 -91 1734 -91 
Q 1441 -91 1130 -33 
Q 819 25 488 141 
L 488 750 
Q 750 597 1062 519 
Q 1375 441 1716 441 
Q 2309 441 2620 675 
Q 2931 909 2931 1356 
Q 2931 1769 2642 2001 
Q 2353 2234 1838 2234 
L 1294 2234 
L 1294 2753 
L 1863 2753 
Q 2328 2753 2575 2939 
Q 2822 3125 2822 3475 
Q 2822 3834 2567 4026 
Q 2313 4219 1838 4219 
Q 1578 4219 1281 4162 
Q 984 4106 628 3988 
L 628 4550 
Q 988 4650 1302 4700 
Q 1616 4750 1894 4750 
Q 2613 4750 3031 4423 
Q 3450 4097 3450 3541 
Q 3450 3153 3228 2886 
Q 3006 2619 2597 2516 
z
" transform="scale(0.015625)"/>
       </defs>
       <use xlink:href="#DejaVuSans-33"/>
       <use xlink:href="#DejaVuSans-30" transform="translate(63.623047 0)"/>
       <use xlink:href="#DejaVuSans-30" transform="translate(127.246094 0)"/>
       <use xlink:href="#DejaVuSans-30" transform="translate(190.869141 0)"/>
      </g>
     </g>
    </g>
    <g id="xtick_7">
     <g id="line2d_13">
      <g>
       <use xlink:href="#m27e754094f" x="151.019979" y="311.46" style="stroke: #000000; stroke-width: 2"/>
      </g>
     </g>
     <g id="line2d_14">
      <g>
       <use xlink:href="#m5f56d26fb0" x="151.019979" y="10.8" style="stroke: #000000; stroke-width: 2"/>
      </g>
     </g>
     <g id="text_7">
      <!-- 3500 -->
      <g transform="translate(133.204979 325.597812) scale(0.14 -0.14)">
       <use xlink:href="#DejaVuSans-33"/>
       <use xlink:href="#DejaVuSans-35" transform="translate(63.623047 0)"/>
       <use xlink:href="#DejaVuSans-30" transform="translate(127.246094 0)"/>
       <use xlink:href="#DejaVuSans-30" transform="translate(190.869141 0)"/>
      </g>
     </g>
    </g>
    <g id="xtick_8">
     <g id="line2d_15">
      <g>
       <use xlink:href="#m27e754094f" x="88.401105" y="311.46" style="stroke: #000000; stroke-width: 2"/>
      </g>
     </g>
     <g id="line2d_16">
      <g>
       <use xlink:href="#m5f56d26fb0" x="88.401105" y="10.8" style="stroke: #000000; stroke-width: 2"/>
      </g>
     </g>
     <g id="text_8">
      <!-- 4000 -->
      <g transform="translate(70.586105 325.597812) scale(0.14 -0.14)">
       <defs>
        <path id="DejaVuSans-34" d="M 2419 4116 
L 825 1625 
L 2419 1625 
L 2419 4116 
z
M 2253 4666 
L 3047 4666 
L 3047 1625 
L 3713 1625 
L 3713 1100 
L 3047 1100 
L 3047 0 
L 2419 0 
L 2419 1100 
L 313 1100 
L 313 1709 
L 2253 4666 
z
" transform="scale(0.015625)"/>
       </defs>
       <use xlink:href="#DejaVuSans-34"/>
       <use xlink:href="#DejaVuSans-30" transform="translate(63.623047 0)"/>
       <use xlink:href="#DejaVuSans-30" transform="translate(127.246094 0)"/>
       <use xlink:href="#DejaVuSans-30" transform="translate(190.869141 0)"/>
      </g>
     </g>
    </g>
    <g id="xtick_9">
     <g id="line2d_17">
      <defs>
       <path id="m88cd661499" d="M 0 0 
L 0 -4 
" style="stroke: #000000; stroke-width: 2"/>
      </defs>
      <g>
       <use xlink:href="#m88cd661499" x="564.30455" y="311.46" style="stroke: #000000; stroke-width: 2"/>
      </g>
     </g>
     <g id="line2d_18">
      <defs>
       <path id="m4f11ce9316" d="M 0 0 
L 0 4 
" style="stroke: #000000; stroke-width: 2"/>
      </defs>
      <g>
       <use xlink:href="#m4f11ce9316" x="564.30455" y="10.8" style="stroke: #000000; stroke-width: 2"/>
      </g>
     </g>
    </g>
    <g id="xtick_10">
     <g id="line2d_19">
      <g>
       <use xlink:href="#m88cd661499" x="551.780775" y="311.46" style="stroke: #000000; stroke-width: 2"/>
      </g>
     </g>
     <g id="line2d_20">
      <g>
       <use xlink:href="#m4f11ce9316" x="551.780775" y="10.8" style="stroke: #000000; stroke-width: 2"/>
      </g>
     </g>
    </g>
    <g id="xtick_11">
     <g id="line2d_21">
      <g>
       <use xlink:href="#m88cd661499" x="539.257" y="311.46" style="stroke: #000000; stroke-width: 2"/>
      </g>
     </g>
     <g id="line2d_22">
      <g>
       <use xlink:href="#m4f11ce9316" x="539.257" y="10.8" style="stroke: #000000; stroke-width: 2"/>
      </g>
     </g>
    </g>
    <g id="xtick_12">
     <g id="line2d_23">
      <g>
       <use xlink:href="#m88cd661499" x="514.209451" y="311.46" style="stroke: #000000; stroke-width: 2"/>
      </g>
     </g>
     <g id="line2d_24">
      <g>
       <use xlink:href="#m4f11ce9316" x="514.209451" y="10.8" style="stroke: #000000; stroke-width: 2"/>
      </g>
     </g>
    </g>
    <g id="xtick_13">
     <g id="line2d_25">
      <g>
       <use xlink:href="#m88cd661499" x="501.685676" y="311.46" style="stroke: #000000; stroke-width: 2"/>
      </g>
     </g>
     <g id="line2d_26">
      <g>
       <use xlink:href="#m4f11ce9316" x="501.685676" y="10.8" style="stroke: #000000; stroke-width: 2"/>
      </g>
     </g>
    </g>
    <g id="xtick_14">
     <g id="line2d_27">
      <g>
       <use xlink:href="#m88cd661499" x="489.161901" y="311.46" style="stroke: #000000; stroke-width: 2"/>
      </g>
     </g>
     <g id="line2d_28">
      <g>
       <use xlink:href="#m4f11ce9316" x="489.161901" y="10.8" style="stroke: #000000; stroke-width: 2"/>
      </g>
     </g>
    </g>
    <g id="xtick_15">
     <g id="line2d_29">
      <g>
       <use xlink:href="#m88cd661499" x="476.638126" y="311.46" style="stroke: #000000; stroke-width: 2"/>
      </g>
     </g>
     <g id="line2d_30">
      <g>
       <use xlink:href="#m4f11ce9316" x="476.638126" y="10.8" style="stroke: #000000; stroke-width: 2"/>
      </g>
     </g>
    </g>
    <g id="xtick_16">
     <g id="line2d_31">
      <g>
       <use xlink:href="#m88cd661499" x="451.590576" y="311.46" style="stroke: #000000; stroke-width: 2"/>
      </g>
     </g>
     <g id="line2d_32">
      <g>
       <use xlink:href="#m4f11ce9316" x="451.590576" y="10.8" style="stroke: #000000; stroke-width: 2"/>
      </g>
     </g>
    </g>
    <g id="xtick_17">
     <g id="line2d_33">
      <g>
       <use xlink:href="#m88cd661499" x="439.066801" y="311.46" style="stroke: #000000; stroke-width: 2"/>
      </g>
     </g>
     <g id="line2d_34">
      <g>
       <use xlink:href="#m4f11ce9316" x="439.066801" y="10.8" style="stroke: #000000; stroke-width: 2"/>
      </g>
     </g>
    </g>
    <g id="xtick_18">
     <g id="line2d_35">
      <g>
       <use xlink:href="#m88cd661499" x="426.543026" y="311.46" style="stroke: #000000; stroke-width: 2"/>
      </g>
     </g>
     <g id="line2d_36">
      <g>
       <use xlink:href="#m4f11ce9316" x="426.543026" y="10.8" style="stroke: #000000; stroke-width: 2"/>
      </g>
     </g>
    </g>
    <g id="xtick_19">
     <g id="line2d_37">
      <g>
       <use xlink:href="#m88cd661499" x="414.019252" y="311.46" style="stroke: #000000; stroke-width: 2"/>
      </g>
     </g>
     <g id="line2d_38">
      <g>
       <use xlink:href="#m4f11ce9316" x="414.019252" y="10.8" style="stroke: #000000; stroke-width: 2"/>
      </g>
     </g>
    </g>
    <g id="xtick_20">
     <g id="line2d_39">
      <g>
       <use xlink:href="#m88cd661499" x="388.971702" y="311.46" style="stroke: #000000; stroke-width: 2"/>
      </g>
     </g>
     <g id="line2d_40">
      <g>
       <use xlink:href="#m4f11ce9316" x="388.971702" y="10.8" style="stroke: #000000; stroke-width: 2"/>
      </g>
     </g>
    </g>
    <g id="xtick_21">
     <g id="line2d_41">
      <g>
       <use xlink:href="#m88cd661499" x="376.447927" y="311.46" style="stroke: #000000; stroke-width: 2"/>
      </g>
     </g>
     <g id="line2d_42">
      <g>
       <use xlink:href="#m4f11ce9316" x="376.447927" y="10.8" style="stroke: #000000; stroke-width: 2"/>
      </g>
     </g>
    </g>
    <g id="xtick_22">
     <g id="line2d_43">
      <g>
       <use xlink:href="#m88cd661499" x="363.924152" y="311.46" style="stroke: #000000; stroke-width: 2"/>
      </g>
     </g>
     <g id="line2d_44">
      <g>
       <use xlink:href="#m4f11ce9316" x="363.924152" y="10.8" style="stroke: #000000; stroke-width: 2"/>
      </g>
     </g>
    </g>
    <g id="xtick_23">
     <g id="line2d_45">
      <g>
       <use xlink:href="#m88cd661499" x="351.400377" y="311.46" style="stroke: #000000; stroke-width: 2"/>
      </g>
     </g>
     <g id="line2d_46">
      <g>
       <use xlink:href="#m4f11ce9316" x="351.400377" y="10.8" style="stroke: #000000; stroke-width: 2"/>
      </g>
     </g>
    </g>
    <g id="xtick_24">
     <g id="line2d_47">
      <g>
       <use xlink:href="#m88cd661499" x="326.352828" y="311.46" style="stroke: #000000; stroke-width: 2"/>
      </g>
     </g>
     <g id="line2d_48">
      <g>
       <use xlink:href="#m4f11ce9316" x="326.352828" y="10.8" style="stroke: #000000; stroke-width: 2"/>
      </g>
     </g>
    </g>
    <g id="xtick_25">
     <g id="line2d_49">
      <g>
       <use xlink:href="#m88cd661499" x="313.829053" y="311.46" style="stroke: #000000; stroke-width: 2"/>
      </g>
     </g>
     <g id="line2d_50">
      <g>
       <use xlink:href="#m4f11ce9316" x="313.829053" y="10.8" style="stroke: #000000; stroke-width: 2"/>
      </g>
     </g>
    </g>
    <g id="xtick_26">
     <g id="line2d_51">
      <g>
       <use xlink:href="#m88cd661499" x="301.305278" y="311.46" style="stroke: #000000; stroke-width: 2"/>
      </g>
     </g>
     <g id="line2d_52">
      <g>
       <use xlink:href="#m4f11ce9316" x="301.305278" y="10.8" style="stroke: #000000; stroke-width: 2"/>
      </g>
     </g>
    </g>
    <g id="xtick_27">
     <g id="line2d_53">
      <g>
       <use xlink:href="#m88cd661499" x="288.781503" y="311.46" style="stroke: #000000; stroke-width: 2"/>
      </g>
     </g>
     <g id="line2d_54">
      <g>
       <use xlink:href="#m4f11ce9316" x="288.781503" y="10.8" style="stroke: #000000; stroke-width: 2"/>
      </g>
     </g>
    </g>
    <g id="xtick_28">
     <g id="line2d_55">
      <g>
       <use xlink:href="#m88cd661499" x="263.733953" y="311.46" style="stroke: #000000; stroke-width: 2"/>
      </g>
     </g>
     <g id="line2d_56">
      <g>
       <use xlink:href="#m4f11ce9316" x="263.733953" y="10.8" style="stroke: #000000; stroke-width: 2"/>
      </g>
     </g>
    </g>
    <g id="xtick_29">
     <g id="line2d_57">
      <g>
       <use xlink:href="#m88cd661499" x="251.210178" y="311.46" style="stroke: #000000; stroke-width: 2"/>
      </g>
     </g>
     <g id="line2d_58">
      <g>
       <use xlink:href="#m4f11ce9316" x="251.210178" y="10.8" style="stroke: #000000; stroke-width: 2"/>
      </g>
     </g>
    </g>
    <g id="xtick_30">
     <g id="line2d_59">
      <g>
       <use xlink:href="#m88cd661499" x="238.686403" y="311.46" style="stroke: #000000; stroke-width: 2"/>
      </g>
     </g>
     <g id="line2d_60">
      <g>
       <use xlink:href="#m4f11ce9316" x="238.686403" y="10.8" style="stroke: #000000; stroke-width: 2"/>
      </g>
     </g>
    </g>
    <g id="xtick_31">
     <g id="line2d_61">
      <g>
       <use xlink:href="#m88cd661499" x="226.162629" y="311.46" style="stroke: #000000; stroke-width: 2"/>
      </g>
     </g>
     <g id="line2d_62">
      <g>
       <use xlink:href="#m4f11ce9316" x="226.162629" y="10.8" style="stroke: #000000; stroke-width: 2"/>
      </g>
     </g>
    </g>
    <g id="xtick_32">
     <g id="line2d_63">
      <g>
       <use xlink:href="#m88cd661499" x="201.115079" y="311.46" style="stroke: #000000; stroke-width: 2"/>
      </g>
     </g>
     <g id="line2d_64">
      <g>
       <use xlink:href="#m4f11ce9316" x="201.115079" y="10.8" style="stroke: #000000; stroke-width: 2"/>
      </g>
     </g>
    </g>
    <g id="xtick_33">
     <g id="line2d_65">
      <g>
       <use xlink:href="#m88cd661499" x="188.591304" y="311.46" style="stroke: #000000; stroke-width: 2"/>
      </g>
     </g>
     <g id="line2d_66">
      <g>
       <use xlink:href="#m4f11ce9316" x="188.591304" y="10.8" style="stroke: #000000; stroke-width: 2"/>
      </g>
     </g>
    </g>
    <g id="xtick_34">
     <g id="line2d_67">
      <g>
       <use xlink:href="#m88cd661499" x="176.067529" y="311.46" style="stroke: #000000; stroke-width: 2"/>
      </g>
     </g>
     <g id="line2d_68">
      <g>
       <use xlink:href="#m4f11ce9316" x="176.067529" y="10.8" style="stroke: #000000; stroke-width: 2"/>
      </g>
     </g>
    </g>
    <g id="xtick_35">
     <g id="line2d_69">
      <g>
       <use xlink:href="#m88cd661499" x="163.543754" y="311.46" style="stroke: #000000; stroke-width: 2"/>
      </g>
     </g>
     <g id="line2d_70">
      <g>
       <use xlink:href="#m4f11ce9316" x="163.543754" y="10.8" style="stroke: #000000; stroke-width: 2"/>
      </g>
     </g>
    </g>
    <g id="xtick_36">
     <g id="line2d_71">
      <g>
       <use xlink:href="#m88cd661499" x="138.496204" y="311.46" style="stroke: #000000; stroke-width: 2"/>
      </g>
     </g>
     <g id="line2d_72">
      <g>
       <use xlink:href="#m4f11ce9316" x="138.496204" y="10.8" style="stroke: #000000; stroke-width: 2"/>
      </g>
     </g>
    </g>
    <g id="xtick_37">
     <g id="line2d_73">
      <g>
       <use xlink:href="#m88cd661499" x="125.97243" y="311.46" style="stroke: #000000; stroke-width: 2"/>
      </g>
     </g>
     <g id="line2d_74">
      <g>
       <use xlink:href="#m4f11ce9316" x="125.97243" y="10.8" style="stroke: #000000; stroke-width: 2"/>
      </g>
     </g>
    </g>
    <g id="xtick_38">
     <g id="line2d_75">
      <g>
       <use xlink:href="#m88cd661499" x="113.448655" y="311.46" style="stroke: #000000; stroke-width: 2"/>
      </g>
     </g>
     <g id="line2d_76">
      <g>
       <use xlink:href="#m4f11ce9316" x="113.448655" y="10.8" style="stroke: #000000; stroke-width: 2"/>
      </g>
     </g>
    </g>
    <g id="xtick_39">
     <g id="line2d_77">
      <g>
       <use xlink:href="#m88cd661499" x="100.92488" y="311.46" style="stroke: #000000; stroke-width: 2"/>
      </g>
     </g>
     <g id="line2d_78">
      <g>
       <use xlink:href="#m4f11ce9316" x="100.92488" y="10.8" style="stroke: #000000; stroke-width: 2"/>
      </g>
     </g>
    </g>
    <g id="xtick_40">
     <g id="line2d_79">
      <g>
       <use xlink:href="#m88cd661499" x="75.87733" y="311.46" style="stroke: #000000; stroke-width: 2"/>
      </g>
     </g>
     <g id="line2d_80">
      <g>
       <use xlink:href="#m4f11ce9316" x="75.87733" y="10.8" style="stroke: #000000; stroke-width: 2"/>
      </g>
     </g>
    </g>
    <g id="text_9">
     <!-- Wavenumber (cm⁻¹) -->
     <g transform="translate(234.05625 344.666875) scale(0.16 -0.16)">
      <defs>
       <path id="DejaVuSans-57" d="M 213 4666 
L 850 4666 
L 1831 722 
L 2809 4666 
L 3519 4666 
L 4500 722 
L 5478 4666 
L 6119 4666 
L 4947 0 
L 4153 0 
L 3169 4050 
L 2175 0 
L 1381 0 
L 213 4666 
z
" transform="scale(0.015625)"/>
       <path id="DejaVuSans-61" d="M 2194 1759 
Q 1497 1759 1228 1600 
Q 959 1441 959 1056 
Q 959 750 1161 570 
Q 1363 391 1709 391 
Q 2188 391 2477 730 
Q 2766 1069 2766 1631 
L 2766 1759 
L 2194 1759 
z
M 3341 1997 
L 3341 0 
L 2766 0 
L 2766 531 
Q 2569 213 2275 61 
Q 1981 -91 1556 -91 
Q 1019 -91 701 211 
Q 384 513 384 1019 
Q 384 1609 779 1909 
Q 1175 2209 1959 2209 
L 2766 2209 
L 2766 2266 
Q 2766 2663 2505 2880 
Q 2244 3097 1772 3097 
Q 1472 3097 1187 3025 
Q 903 2953 641 2809 
L 641 3341 
Q 956 3463 1253 3523 
Q 1550 3584 1831 3584 
Q 2591 3584 2966 3190 
Q 3341 2797 3341 1997 
z
" transform="scale(0.015625)"/>
       <path id="DejaVuSans-76" d="M 191 3500 
L 800 3500 
L 1894 563 
L 2988 3500 
L 3597 3500 
L 2284 0 
L 1503 0 
L 191 3500 
z
" transform="scale(0.015625)"/>
       <path id="DejaVuSans-65" d="M 3597 1894 
L 3597 1613 
L 953 1613 
Q 991 1019 1311 708 
Q 1631 397 2203 397 
Q 2534 397 2845 478 
Q 3156 559 3463 722 
L 3463 178 
Q 3153 47 2828 -22 
Q 2503 -91 2169 -91 
Q 1331 -91 842 396 
Q 353 884 353 1716 
Q 353 2575 817 3079 
Q 1281 3584 2069 3584 
Q 2775 3584 3186 3129 
Q 3597 2675 3597 1894 
z
M 3022 2063 
Q 3016 2534 2758 2815 
Q 2500 3097 2075 3097 
Q 1594 3097 1305 2825 
Q 1016 2553 972 2059 
L 3022 2063 
z
" transform="scale(0.015625)"/>
       <path id="DejaVuSans-6e" d="M 3513 2113 
L 3513 0 
L 2938 0 
L 2938 2094 
Q 2938 2591 2744 2837 
Q 2550 3084 2163 3084 
Q 1697 3084 1428 2787 
Q 1159 2491 1159 1978 
L 1159 0 
L 581 0 
L 581 3500 
L 1159 3500 
L 1159 2956 
Q 1366 3272 1645 3428 
Q 1925 3584 2291 3584 
Q 2894 3584 3203 3211 
Q 3513 2838 3513 2113 
z
" transform="scale(0.015625)"/>
       <path id="DejaVuSans-75" d="M 544 1381 
L 544 3500 
L 1119 3500 
L 1119 1403 
Q 1119 906 1312 657 
Q 1506 409 1894 409 
Q 2359 409 2629 706 
Q 2900 1003 2900 1516 
L 2900 3500 
L 3475 3500 
L 3475 0 
L 2900 0 
L 2900 538 
Q 2691 219 2414 64 
Q 2138 -91 1772 -91 
Q 1169 -91 856 284 
Q 544 659 544 1381 
z
M 1991 3584 
L 1991 3584 
z
" transform="scale(0.015625)"/>
       <path id="DejaVuSans-6d" d="M 3328 2828 
Q 3544 3216 3844 3400 
Q 4144 3584 4550 3584 
Q 5097 3584 5394 3201 
Q 5691 2819 5691 2113 
L 5691 0 
L 5113 0 
L 5113 2094 
Q 5113 2597 4934 2840 
Q 4756 3084 4391 3084 
Q 3944 3084 3684 2787 
Q 3425 2491 3425 1978 
L 3425 0 
L 2847 0 
L 2847 2094 
Q 2847 2600 2669 2842 
Q 2491 3084 2119 3084 
Q 1678 3084 1418 2786 
Q 1159 2488 1159 1978 
L 1159 0 
L 581 0 
L 581 3500 
L 1159 3500 
L 1159 2956 
Q 1356 3278 1631 3431 
Q 1906 3584 2284 3584 
Q 2666 3584 2933 3390 
Q 3200 3197 3328 2828 
z
" transform="scale(0.015625)"/>
       <path id="DejaVuSans-62" d="M 3116 1747 
Q 3116 2381 2855 2742 
Q 2594 3103 2138 3103 
Q 1681 3103 1420 2742 
Q 1159 2381 1159 1747 
Q 1159 1113 1420 752 
Q 1681 391 2138 391 
Q 2594 391 2855 752 
Q 3116 1113 3116 1747 
z
M 1159 2969 
Q 1341 3281 1617 3432 
Q 1894 3584 2278 3584 
Q 2916 3584 3314 3078 
Q 3713 2572 3713 1747 
Q 3713 922 3314 415 
Q 2916 -91 2278 -91 
Q 1894 -91 1617 61 
Q 1341 213 1159 525 
L 1159 0 
L 581 0 
L 581 4863 
L 1159 4863 
L 1159 2969 
z
" transform="scale(0.015625)"/>
       <path id="DejaVuSans-72" d="M 2631 2963 
Q 2534 3019 2420 3045 
Q 2306 3072 2169 3072 
Q 1681 3072 1420 2755 
Q 1159 2438 1159 1844 
L 1159 0 
L 581 0 
L 581 3500 
L 1159 3500 
L 1159 2956 
Q 1341 3275 1631 3429 
Q 1922 3584 2338 3584 
Q 2397 3584 2469 3576 
Q 2541 3569 2628 3553 
L 2631 2963 
z
" transform="scale(0.015625)"/>
       <path id="DejaVuSans-20" transform="scale(0.015625)"/>
       <path id="DejaVuSans-28" d="M 1984 4856 
Q 1566 4138 1362 3434 
Q 1159 2731 1159 2009 
Q 1159 1288 1364 580 
Q 1569 -128 1984 -844 
L 1484 -844 
Q 1016 -109 783 600 
Q 550 1309 550 2009 
Q 550 2706 781 3412 
Q 1013 4119 1484 4856 
L 1984 4856 
z
" transform="scale(0.015625)"/>
       <path id="DejaVuSans-63" d="M 3122 3366 
L 3122 2828 
Q 2878 2963 2633 3030 
Q 2388 3097 2138 3097 
Q 1578 3097 1268 2742 
Q 959 2388 959 1747 
Q 959 1106 1268 751 
Q 1578 397 2138 397 
Q 2388 397 2633 464 
Q 2878 531 3122 666 
L 3122 134 
Q 2881 22 2623 -34 
Q 2366 -91 2075 -91 
Q 1284 -91 818 406 
Q 353 903 353 1747 
Q 353 2603 823 3093 
Q 1294 3584 2113 3584 
Q 2378 3584 2631 3529 
Q 2884 3475 3122 3366 
z
" transform="scale(0.015625)"/>
       <path id="DejaVuSans-207b" d="M 428 3359 
L 2950 3359 
L 2950 3063 
L 428 3063 
L 428 3359 
z
" transform="scale(0.015625)"/>
       <path id="DejaVuSans-b9" d="M 488 2431 
L 1125 2431 
L 1125 4341 
L 428 4213 
L 428 4575 
L 1147 4697 
L 1575 4697 
L 1575 2431 
L 2216 2431 
L 2216 2088 
L 488 2088 
L 488 2431 
z
" transform="scale(0.015625)"/>
       <path id="DejaVuSans-29" d="M 513 4856 
L 1013 4856 
Q 1481 4119 1714 3412 
Q 1947 2706 1947 2009 
Q 1947 1309 1714 600 
Q 1481 -109 1013 -844 
L 513 -844 
Q 928 -128 1133 580 
Q 1338 1288 1338 2009 
Q 1338 2731 1133 3434 
Q 928 4138 513 4856 
z
" transform="scale(0.015625)"/>
      </defs>
      <use xlink:href="#DejaVuSans-57"/>
      <use xlink:href="#DejaVuSans-61" transform="translate(92.501953 0)"/>
      <use xlink:href="#DejaVuSans-76" transform="translate(153.78125 0)"/>
      <use xlink:href="#DejaVuSans-65" transform="translate(212.960938 0)"/>
      <use xlink:href="#DejaVuSans-6e" transform="translate(274.484375 0)"/>
      <use xlink:href="#DejaVuSans-75" transform="translate(337.863281 0)"/>
      <use xlink:href="#DejaVuSans-6d" transform="translate(401.242188 0)"/>
      <use xlink:href="#DejaVuSans-62" transform="translate(498.654297 0)"/>
      <use xlink:href="#DejaVuSans-65" transform="translate(562.130859 0)"/>
      <use xlink:href="#DejaVuSans-72" transform="translate(623.654297 0)"/>
      <use xlink:href="#DejaVuSans-20" transform="translate(664.767578 0)"/>
      <use xlink:href="#DejaVuSans-28" transform="translate(696.554688 0)"/>
      <use xlink:href="#DejaVuSans-63" transform="translate(735.568359 0)"/>
      <use xlink:href="#DejaVuSans-6d" transform="translate(790.548828 0)"/>
      <use xlink:href="#DejaVuSans-207b" transform="translate(887.960938 0)"/>
      <use xlink:href="#DejaVuSans-b9" transform="translate(940.744141 0)"/>
      <use xlink:href="#DejaVuSans-29" transform="translate(980.832031 0)"/>
     </g>
    </g>
   </g>
   <g id="matplotlib.axis_2">
    <g id="ytick_1">
     <g id="line2d_81">
      <defs>
       <path id="m05aae4e1c7" d="M 0 0 
L 6 0 
" style="stroke: #000000; stroke-width: 2"/>
      </defs>
      <g>
       <use xlink:href="#m05aae4e1c7" x="66.09" y="275.483802" style="stroke: #000000; stroke-width: 2"/>
      </g>
     </g>
     <g id="line2d_82">
      <defs>
       <path id="m7eb2ce0957" d="M 0 0 
L -6 0 
" style="stroke: #000000; stroke-width: 2"/>
      </defs>
      <g>
       <use xlink:href="#m7eb2ce0957" x="565.2" y="275.483802" style="stroke: #000000; stroke-width: 2"/>
      </g>
     </g>
     <g id="text_10">
      <!-- 0.05 -->
      <g transform="translate(31.418125 280.802708) scale(0.14 -0.14)">
       <defs>
        <path id="DejaVuSans-2e" d="M 684 794 
L 1344 794 
L 1344 0 
L 684 0 
L 684 794 
z
" transform="scale(0.015625)"/>
       </defs>
       <use xlink:href="#DejaVuSans-30"/>
       <use xlink:href="#DejaVuSans-2e" transform="translate(63.623047 0)"/>
       <use xlink:href="#DejaVuSans-30" transform="translate(95.410156 0)"/>
       <use xlink:href="#DejaVuSans-35" transform="translate(159.033203 0)"/>
      </g>
     </g>
    </g>
    <g id="ytick_2">
     <g id="line2d_83">
      <g>
       <use xlink:href="#m05aae4e1c7" x="66.09" y="235.739969" style="stroke: #000000; stroke-width: 2"/>
      </g>
     </g>
     <g id="line2d_84">
      <g>
       <use xlink:href="#m7eb2ce0957" x="565.2" y="235.739969" style="stroke: #000000; stroke-width: 2"/>
      </g>
     </g>
     <g id="text_11">
      <!-- 0.10 -->
      <g transform="translate(31.418125 241.058875) scale(0.14 -0.14)">
       <use xlink:href="#DejaVuSans-30"/>
       <use xlink:href="#DejaVuSans-2e" transform="translate(63.623047 0)"/>
       <use xlink:href="#DejaVuSans-31" transform="translate(95.410156 0)"/>
       <use xlink:href="#DejaVuSans-30" transform="translate(159.033203 0)"/>
      </g>
     </g>
    </g>
    <g id="ytick_3">
     <g id="line2d_85">
      <g>
       <use xlink:href="#m05aae4e1c7" x="66.09" y="195.996136" style="stroke: #000000; stroke-width: 2"/>
      </g>
     </g>
     <g id="line2d_86">
      <g>
       <use xlink:href="#m7eb2ce0957" x="565.2" y="195.996136" style="stroke: #000000; stroke-width: 2"/>
      </g>
     </g>
     <g id="text_12">
      <!-- 0.15 -->
      <g transform="translate(31.418125 201.315042) scale(0.14 -0.14)">
       <use xlink:href="#DejaVuSans-30"/>
       <use xlink:href="#DejaVuSans-2e" transform="translate(63.623047 0)"/>
       <use xlink:href="#DejaVuSans-31" transform="translate(95.410156 0)"/>
       <use xlink:href="#DejaVuSans-35" transform="translate(159.033203 0)"/>
      </g>
     </g>
    </g>
    <g id="ytick_4">
     <g id="line2d_87">
      <g>
       <use xlink:href="#m05aae4e1c7" x="66.09" y="156.252303" style="stroke: #000000; stroke-width: 2"/>
      </g>
     </g>
     <g id="line2d_88">
      <g>
       <use xlink:href="#m7eb2ce0957" x="565.2" y="156.252303" style="stroke: #000000; stroke-width: 2"/>
      </g>
     </g>
     <g id="text_13">
      <!-- 0.20 -->
      <g transform="translate(31.418125 161.571209) scale(0.14 -0.14)">
       <use xlink:href="#DejaVuSans-30"/>
       <use xlink:href="#DejaVuSans-2e" transform="translate(63.623047 0)"/>
       <use xlink:href="#DejaVuSans-32" transform="translate(95.410156 0)"/>
       <use xlink:href="#DejaVuSans-30" transform="translate(159.033203 0)"/>
      </g>
     </g>
    </g>
    <g id="ytick_5">
     <g id="line2d_89">
      <g>
       <use xlink:href="#m05aae4e1c7" x="66.09" y="116.508469" style="stroke: #000000; stroke-width: 2"/>
      </g>
     </g>
     <g id="line2d_90">
      <g>
       <use xlink:href="#m7eb2ce0957" x="565.2" y="116.508469" style="stroke: #000000; stroke-width: 2"/>
      </g>
     </g>
     <g id="text_14">
      <!-- 0.25 -->
      <g transform="translate(31.418125 121.827376) scale(0.14 -0.14)">
       <use xlink:href="#DejaVuSans-30"/>
       <use xlink:href="#DejaVuSans-2e" transform="translate(63.623047 0)"/>
       <use xlink:href="#DejaVuSans-32" transform="translate(95.410156 0)"/>
       <use xlink:href="#DejaVuSans-35" transform="translate(159.033203 0)"/>
      </g>
     </g>
    </g>
    <g id="ytick_6">
     <g id="line2d_91">
      <g>
       <use xlink:href="#m05aae4e1c7" x="66.09" y="76.764636" style="stroke: #000000; stroke-width: 2"/>
      </g>
     </g>
     <g id="line2d_92">
      <g>
       <use xlink:href="#m7eb2ce0957" x="565.2" y="76.764636" style="stroke: #000000; stroke-width: 2"/>
      </g>
     </g>
     <g id="text_15">
      <!-- 0.30 -->
      <g transform="translate(31.418125 82.083542) scale(0.14 -0.14)">
       <use xlink:href="#DejaVuSans-30"/>
       <use xlink:href="#DejaVuSans-2e" transform="translate(63.623047 0)"/>
       <use xlink:href="#DejaVuSans-33" transform="translate(95.410156 0)"/>
       <use xlink:href="#DejaVuSans-30" transform="translate(159.033203 0)"/>
      </g>
     </g>
    </g>
    <g id="ytick_7">
     <g id="line2d_93">
      <g>
       <use xlink:href="#m05aae4e1c7" x="66.09" y="37.020803" style="stroke: #000000; stroke-width: 2"/>
      </g>
     </g>
     <g id="line2d_94">
      <g>
       <use xlink:href="#m7eb2ce0957" x="565.2" y="37.020803" style="stroke: #000000; stroke-width: 2"/>
      </g>
     </g>
     <g id="text_16">
      <!-- 0.35 -->
      <g transform="translate(31.418125 42.339709) scale(0.14 -0.14)">
       <use xlink:href="#DejaVuSans-30"/>
       <use xlink:href="#DejaVuSans-2e" transform="translate(63.623047 0)"/>
       <use xlink:href="#DejaVuSans-33" transform="translate(95.410156 0)"/>
       <use xlink:href="#DejaVuSans-35" transform="translate(159.033203 0)"/>
      </g>
     </g>
    </g>
    <g id="ytick_8">
     <g id="line2d_95">
      <defs>
       <path id="m9cac0ccea7" d="M 0 0 
L 4 0 
" style="stroke: #000000; stroke-width: 2"/>
      </defs>
      <g>
       <use xlink:href="#m9cac0ccea7" x="66.09" y="307.278869" style="stroke: #000000; stroke-width: 2"/>
      </g>
     </g>
     <g id="line2d_96">
      <defs>
       <path id="m8654e920f8" d="M 0 0 
L -4 0 
" style="stroke: #000000; stroke-width: 2"/>
      </defs>
      <g>
       <use xlink:href="#m8654e920f8" x="565.2" y="307.278869" style="stroke: #000000; stroke-width: 2"/>
      </g>
     </g>
    </g>
    <g id="ytick_9">
     <g id="line2d_97">
      <g>
       <use xlink:href="#m9cac0ccea7" x="66.09" y="299.330102" style="stroke: #000000; stroke-width: 2"/>
      </g>
     </g>
     <g id="line2d_98">
      <g>
       <use xlink:href="#m8654e920f8" x="565.2" y="299.330102" style="stroke: #000000; stroke-width: 2"/>
      </g>
     </g>
    </g>
    <g id="ytick_10">
     <g id="line2d_99">
      <g>
       <use xlink:href="#m9cac0ccea7" x="66.09" y="291.381335" style="stroke: #000000; stroke-width: 2"/>
      </g>
     </g>
     <g id="line2d_100">
      <g>
       <use xlink:href="#m8654e920f8" x="565.2" y="291.381335" style="stroke: #000000; stroke-width: 2"/>
      </g>
     </g>
    </g>
    <g id="ytick_11">
     <g id="line2d_101">
      <g>
       <use xlink:href="#m9cac0ccea7" x="66.09" y="283.432569" style="stroke: #000000; stroke-width: 2"/>
      </g>
     </g>
     <g id="line2d_102">
      <g>
       <use xlink:href="#m8654e920f8" x="565.2" y="283.432569" style="stroke: #000000; stroke-width: 2"/>
      </g>
     </g>
    </g>
    <g id="ytick_12">
     <g id="line2d_103">
      <g>
       <use xlink:href="#m9cac0ccea7" x="66.09" y="267.535035" style="stroke: #000000; stroke-width: 2"/>
      </g>
     </g>
     <g id="line2d_104">
      <g>
       <use xlink:href="#m8654e920f8" x="565.2" y="267.535035" style="stroke: #000000; stroke-width: 2"/>
      </g>
     </g>
    </g>
    <g id="ytick_13">
     <g id="line2d_105">
      <g>
       <use xlink:href="#m9cac0ccea7" x="66.09" y="259.586269" style="stroke: #000000; stroke-width: 2"/>
      </g>
     </g>
     <g id="line2d_106">
      <g>
       <use xlink:href="#m8654e920f8" x="565.2" y="259.586269" style="stroke: #000000; stroke-width: 2"/>
      </g>
     </g>
    </g>
    <g id="ytick_14">
     <g id="line2d_107">
      <g>
       <use xlink:href="#m9cac0ccea7" x="66.09" y="251.637502" style="stroke: #000000; stroke-width: 2"/>
      </g>
     </g>
     <g id="line2d_108">
      <g>
       <use xlink:href="#m8654e920f8" x="565.2" y="251.637502" style="stroke: #000000; stroke-width: 2"/>
      </g>
     </g>
    </g>
    <g id="ytick_15">
     <g id="line2d_109">
      <g>
       <use xlink:href="#m9cac0ccea7" x="66.09" y="243.688735" style="stroke: #000000; stroke-width: 2"/>
      </g>
     </g>
     <g id="line2d_110">
      <g>
       <use xlink:href="#m8654e920f8" x="565.2" y="243.688735" style="stroke: #000000; stroke-width: 2"/>
      </g>
     </g>
    </g>
    <g id="ytick_16">
     <g id="line2d_111">
      <g>
       <use xlink:href="#m9cac0ccea7" x="66.09" y="227.791202" style="stroke: #000000; stroke-width: 2"/>
      </g>
     </g>
     <g id="line2d_112">
      <g>
       <use xlink:href="#m8654e920f8" x="565.2" y="227.791202" style="stroke: #000000; stroke-width: 2"/>
      </g>
     </g>
    </g>
    <g id="ytick_17">
     <g id="line2d_113">
      <g>
       <use xlink:href="#m9cac0ccea7" x="66.09" y="219.842436" style="stroke: #000000; stroke-width: 2"/>
      </g>
     </g>
     <g id="line2d_114">
      <g>
       <use xlink:href="#m8654e920f8" x="565.2" y="219.842436" style="stroke: #000000; stroke-width: 2"/>
      </g>
     </g>
    </g>
    <g id="ytick_18">
     <g id="line2d_115">
      <g>
       <use xlink:href="#m9cac0ccea7" x="66.09" y="211.893669" style="stroke: #000000; stroke-width: 2"/>
      </g>
     </g>
     <g id="line2d_116">
      <g>
       <use xlink:href="#m8654e920f8" x="565.2" y="211.893669" style="stroke: #000000; stroke-width: 2"/>
      </g>
     </g>
    </g>
    <g id="ytick_19">
     <g id="line2d_117">
      <g>
       <use xlink:href="#m9cac0ccea7" x="66.09" y="203.944902" style="stroke: #000000; stroke-width: 2"/>
      </g>
     </g>
     <g id="line2d_118">
      <g>
       <use xlink:href="#m8654e920f8" x="565.2" y="203.944902" style="stroke: #000000; stroke-width: 2"/>
      </g>
     </g>
    </g>
    <g id="ytick_20">
     <g id="line2d_119">
      <g>
       <use xlink:href="#m9cac0ccea7" x="66.09" y="188.047369" style="stroke: #000000; stroke-width: 2"/>
      </g>
     </g>
     <g id="line2d_120">
      <g>
       <use xlink:href="#m8654e920f8" x="565.2" y="188.047369" style="stroke: #000000; stroke-width: 2"/>
      </g>
     </g>
    </g>
    <g id="ytick_21">
     <g id="line2d_121">
      <g>
       <use xlink:href="#m9cac0ccea7" x="66.09" y="180.098602" style="stroke: #000000; stroke-width: 2"/>
      </g>
     </g>
     <g id="line2d_122">
      <g>
       <use xlink:href="#m8654e920f8" x="565.2" y="180.098602" style="stroke: #000000; stroke-width: 2"/>
      </g>
     </g>
    </g>
    <g id="ytick_22">
     <g id="line2d_123">
      <g>
       <use xlink:href="#m9cac0ccea7" x="66.09" y="172.149836" style="stroke: #000000; stroke-width: 2"/>
      </g>
     </g>
     <g id="line2d_124">
      <g>
       <use xlink:href="#m8654e920f8" x="565.2" y="172.149836" style="stroke: #000000; stroke-width: 2"/>
      </g>
     </g>
    </g>
    <g id="ytick_23">
     <g id="line2d_125">
      <g>
       <use xlink:href="#m9cac0ccea7" x="66.09" y="164.201069" style="stroke: #000000; stroke-width: 2"/>
      </g>
     </g>
     <g id="line2d_126">
      <g>
       <use xlink:href="#m8654e920f8" x="565.2" y="164.201069" style="stroke: #000000; stroke-width: 2"/>
      </g>
     </g>
    </g>
    <g id="ytick_24">
     <g id="line2d_127">
      <g>
       <use xlink:href="#m9cac0ccea7" x="66.09" y="148.303536" style="stroke: #000000; stroke-width: 2"/>
      </g>
     </g>
     <g id="line2d_128">
      <g>
       <use xlink:href="#m8654e920f8" x="565.2" y="148.303536" style="stroke: #000000; stroke-width: 2"/>
      </g>
     </g>
    </g>
    <g id="ytick_25">
     <g id="line2d_129">
      <g>
       <use xlink:href="#m9cac0ccea7" x="66.09" y="140.354769" style="stroke: #000000; stroke-width: 2"/>
      </g>
     </g>
     <g id="line2d_130">
      <g>
       <use xlink:href="#m8654e920f8" x="565.2" y="140.354769" style="stroke: #000000; stroke-width: 2"/>
      </g>
     </g>
    </g>
    <g id="ytick_26">
     <g id="line2d_131">
      <g>
       <use xlink:href="#m9cac0ccea7" x="66.09" y="132.406003" style="stroke: #000000; stroke-width: 2"/>
      </g>
     </g>
     <g id="line2d_132">
      <g>
       <use xlink:href="#m8654e920f8" x="565.2" y="132.406003" style="stroke: #000000; stroke-width: 2"/>
      </g>
     </g>
    </g>
    <g id="ytick_27">
     <g id="line2d_133">
      <g>
       <use xlink:href="#m9cac0ccea7" x="66.09" y="124.457236" style="stroke: #000000; stroke-width: 2"/>
      </g>
     </g>
     <g id="line2d_134">
      <g>
       <use xlink:href="#m8654e920f8" x="565.2" y="124.457236" style="stroke: #000000; stroke-width: 2"/>
      </g>
     </g>
    </g>
    <g id="ytick_28">
     <g id="line2d_135">
      <g>
       <use xlink:href="#m9cac0ccea7" x="66.09" y="108.559703" style="stroke: #000000; stroke-width: 2"/>
      </g>
     </g>
     <g id="line2d_136">
      <g>
       <use xlink:href="#m8654e920f8" x="565.2" y="108.559703" style="stroke: #000000; stroke-width: 2"/>
      </g>
     </g>
    </g>
    <g id="ytick_29">
     <g id="line2d_137">
      <g>
       <use xlink:href="#m9cac0ccea7" x="66.09" y="100.610936" style="stroke: #000000; stroke-width: 2"/>
      </g>
     </g>
     <g id="line2d_138">
      <g>
       <use xlink:href="#m8654e920f8" x="565.2" y="100.610936" style="stroke: #000000; stroke-width: 2"/>
      </g>
     </g>
    </g>
    <g id="ytick_30">
     <g id="line2d_139">
      <g>
       <use xlink:href="#m9cac0ccea7" x="66.09" y="92.662169" style="stroke: #000000; stroke-width: 2"/>
      </g>
     </g>
     <g id="line2d_140">
      <g>
       <use xlink:href="#m8654e920f8" x="565.2" y="92.662169" style="stroke: #000000; stroke-width: 2"/>
      </g>
     </g>
    </g>
    <g id="ytick_31">
     <g id="line2d_141">
      <g>
       <use xlink:href="#m9cac0ccea7" x="66.09" y="84.713403" style="stroke: #000000; stroke-width: 2"/>
      </g>
     </g>
     <g id="line2d_142">
      <g>
       <use xlink:href="#m8654e920f8" x="565.2" y="84.713403" style="stroke: #000000; stroke-width: 2"/>
      </g>
     </g>
    </g>
    <g id="ytick_32">
     <g id="line2d_143">
      <g>
       <use xlink:href="#m9cac0ccea7" x="66.09" y="68.81587" style="stroke: #000000; stroke-width: 2"/>
      </g>
     </g>
     <g id="line2d_144">
      <g>
       <use xlink:href="#m8654e920f8" x="565.2" y="68.81587" style="stroke: #000000; stroke-width: 2"/>
      </g>
     </g>
    </g>
    <g id="ytick_33">
     <g id="line2d_145">
      <g>
       <use xlink:href="#m9cac0ccea7" x="66.09" y="60.867103" style="stroke: #000000; stroke-width: 2"/>
      </g>
     </g>
     <g id="line2d_146">
      <g>
       <use xlink:href="#m8654e920f8" x="565.2" y="60.867103" style="stroke: #000000; stroke-width: 2"/>
      </g>
     </g>
    </g>
    <g id="ytick_34">
     <g id="line2d_147">
      <g>
       <use xlink:href="#m9cac0ccea7" x="66.09" y="52.918336" style="stroke: #000000; stroke-width: 2"/>
      </g>
     </g>
     <g id="line2d_148">
      <g>
       <use xlink:href="#m8654e920f8" x="565.2" y="52.918336" style="stroke: #000000; stroke-width: 2"/>
      </g>
     </g>
    </g>
    <g id="ytick_35">
     <g id="line2d_149">
      <g>
       <use xlink:href="#m9cac0ccea7" x="66.09" y="44.96957" style="stroke: #000000; stroke-width: 2"/>
      </g>
     </g>
     <g id="line2d_150">
      <g>
       <use xlink:href="#m8654e920f8" x="565.2" y="44.96957" style="stroke: #000000; stroke-width: 2"/>
      </g>
     </g>
    </g>
    <g id="ytick_36">
     <g id="line2d_151">
      <g>
       <use xlink:href="#m9cac0ccea7" x="66.09" y="29.072036" style="stroke: #000000; stroke-width: 2"/>
      </g>
     </g>
     <g id="line2d_152">
      <g>
       <use xlink:href="#m8654e920f8" x="565.2" y="29.072036" style="stroke: #000000; stroke-width: 2"/>
      </g>
     </g>
    </g>
    <g id="ytick_37">
     <g id="line2d_153">
      <g>
       <use xlink:href="#m9cac0ccea7" x="66.09" y="21.12327" style="stroke: #000000; stroke-width: 2"/>
      </g>
     </g>
     <g id="line2d_154">
      <g>
       <use xlink:href="#m8654e920f8" x="565.2" y="21.12327" style="stroke: #000000; stroke-width: 2"/>
      </g>
     </g>
    </g>
    <g id="ytick_38">
     <g id="line2d_155">
      <g>
       <use xlink:href="#m9cac0ccea7" x="66.09" y="13.174503" style="stroke: #000000; stroke-width: 2"/>
      </g>
     </g>
     <g id="line2d_156">
      <g>
       <use xlink:href="#m8654e920f8" x="565.2" y="13.174503" style="stroke: #000000; stroke-width: 2"/>
      </g>
     </g>
    </g>
    <g id="text_17">
     <!-- Intensity -->
     <g transform="translate(24.090625 195.95) rotate(-90) scale(0.16 -0.16)">
      <defs>
       <path id="DejaVuSans-49" d="M 628 4666 
L 1259 4666 
L 1259 0 
L 628 0 
L 628 4666 
z
" transform="scale(0.015625)"/>
       <path id="DejaVuSans-74" d="M 1172 4494 
L 1172 3500 
L 2356 3500 
L 2356 3053 
L 1172 3053 
L 1172 1153 
Q 1172 725 1289 603 
Q 1406 481 1766 481 
L 2356 481 
L 2356 0 
L 1766 0 
Q 1100 0 847 248 
Q 594 497 594 1153 
L 594 3053 
L 172 3053 
L 172 3500 
L 594 3500 
L 594 4494 
L 1172 4494 
z
" transform="scale(0.015625)"/>
       <path id="DejaVuSans-73" d="M 2834 3397 
L 2834 2853 
Q 2591 2978 2328 3040 
Q 2066 3103 1784 3103 
Q 1356 3103 1142 2972 
Q 928 2841 928 2578 
Q 928 2378 1081 2264 
Q 1234 2150 1697 2047 
L 1894 2003 
Q 2506 1872 2764 1633 
Q 3022 1394 3022 966 
Q 3022 478 2636 193 
Q 2250 -91 1575 -91 
Q 1294 -91 989 -36 
Q 684 19 347 128 
L 347 722 
Q 666 556 975 473 
Q 1284 391 1588 391 
Q 1994 391 2212 530 
Q 2431 669 2431 922 
Q 2431 1156 2273 1281 
Q 2116 1406 1581 1522 
L 1381 1569 
Q 847 1681 609 1914 
Q 372 2147 372 2553 
Q 372 3047 722 3315 
Q 1072 3584 1716 3584 
Q 2034 3584 2315 3537 
Q 2597 3491 2834 3397 
z
" transform="scale(0.015625)"/>
       <path id="DejaVuSans-69" d="M 603 3500 
L 1178 3500 
L 1178 0 
L 603 0 
L 603 3500 
z
M 603 4863 
L 1178 4863 
L 1178 4134 
L 603 4134 
L 603 4863 
z
" transform="scale(0.015625)"/>
       <path id="DejaVuSans-79" d="M 2059 -325 
Q 1816 -950 1584 -1140 
Q 1353 -1331 966 -1331 
L 506 -1331 
L 506 -850 
L 844 -850 
Q 1081 -850 1212 -737 
Q 1344 -625 1503 -206 
L 1606 56 
L 191 3500 
L 800 3500 
L 1894 763 
L 2988 3500 
L 3597 3500 
L 2059 -325 
z
" transform="scale(0.015625)"/>
      </defs>
      <use xlink:href="#DejaVuSans-49"/>
      <use xlink:href="#DejaVuSans-6e" transform="translate(29.492188 0)"/>
      <use xlink:href="#DejaVuSans-74" transform="translate(92.871094 0)"/>
      <use xlink:href="#DejaVuSans-65" transform="translate(132.080078 0)"/>
      <use xlink:href="#DejaVuSans-6e" transform="translate(193.603516 0)"/>
      <use xlink:href="#DejaVuSans-73" transform="translate(256.982422 0)"/>
      <use xlink:href="#DejaVuSans-69" transform="translate(309.082031 0)"/>
      <use xlink:href="#DejaVuSans-74" transform="translate(336.865234 0)"/>
      <use xlink:href="#DejaVuSans-79" transform="translate(376.074219 0)"/>
     </g>
    </g>
   </g>
   <g id="line2d_157">
    <path d="M 88.776818 272.929658 
L 89.486431 271.360227 
L 89.663835 271.426013 
L 90.133527 272.904979 
L 90.31093 273.165531 
L 90.488333 273.16474 
L 90.90586 272.674992 
L 91.260666 271.729258 
L 92.085165 268.903361 
L 92.439972 269.687636 
L 92.617375 269.718337 
L 93.389708 268.127353 
L 93.567111 268.599038 
L 94.036804 270.74171 
L 94.214207 269.656908 
L 94.92382 261.705208 
L 95.341347 260.269752 
L 95.51875 260.722395 
L 95.873556 264.058482 
L 96.165845 268.795007 
L 96.343249 268.874907 
L 96.698055 262.49677 
L 97.052862 257.576932 
L 97.292985 257.693748 
L 97.825195 261.017012 
L 98.002598 260.788294 
L 98.180001 259.617205 
L 98.47229 256.921557 
L 98.649694 256.734423 
L 98.827097 257.932832 
L 99.59943 271.242187 
L 99.776833 270.178003 
L 100.13164 257.747887 
L 100.601332 237.351282 
L 100.778735 237.431635 
L 101.133542 248.425246 
L 101.488348 257.551787 
L 101.676306 258.002102 
L 102.563323 252.17137 
L 103.033015 245.792217 
L 103.210418 246.449742 
L 103.805348 255.882566 
L 103.982751 256.148325 
L 104.160155 253.366264 
L 104.692364 241.599419 
L 104.869768 241.141713 
L 105.057726 241.520921 
L 105.235129 242.513026 
L 105.589935 246.750966 
L 106.122145 254.685392 
L 106.310103 250.539063 
L 106.842313 230.708426 
L 107.019716 232.8772 
L 107.739884 260.706112 
L 107.917287 257.602576 
L 108.6269 234.529932 
L 108.814858 235.091801 
L 109.169665 243.556884 
L 109.524471 252.822497 
L 109.879278 256.049662 
L 110.067235 256.31097 
L 110.244639 254.936613 
L 111.131655 238.600211 
L 111.726585 260.713554 
L 111.903988 264.408142 
L 112.081392 264.940984 
L 112.321515 262.524031 
L 113.208531 240.61267 
L 113.385935 240.049001 
L 113.573892 241.519275 
L 113.928699 252.128792 
L 114.460909 269.168011 
L 114.575794 271.615674 
L 114.753198 271.850356 
L 115.285407 267.018839 
L 115.702934 263.881865 
L 115.880337 263.053415 
L 116.057741 263.322944 
L 116.412547 266.533411 
L 116.704836 268.28067 
L 116.882239 266.486655 
L 117.414449 258.236507 
L 117.591852 258.141188 
L 117.831976 259.048194 
L 118.009379 259.172224 
L 118.186782 257.557276 
L 119.011281 245.514657 
L 119.898297 221.06471 
L 120.086255 223.044687 
L 120.795868 240.519096 
L 120.973272 239.914719 
L 121.516036 224.432274 
L 121.693439 225.211785 
L 122.048246 240.327821 
L 122.403052 251.697941 
L 122.59101 250.616148 
L 122.945817 245.195814 
L 123.12322 245.404893 
L 123.478027 253.282881 
L 123.65543 257.829006 
L 123.843388 259.786475 
L 124.020791 257.63708 
L 124.553001 242.940916 
L 124.730404 243.847402 
L 125.450572 264.552006 
L 125.627975 264.405718 
L 125.805378 263.600712 
L 125.982782 263.624466 
L 126.275071 266.50759 
L 126.452474 266.666328 
L 126.629877 263.476236 
L 127.224807 244.981486 
L 127.40221 244.082683 
L 127.579614 247.684219 
L 128.111823 266.190557 
L 128.289227 265.847929 
L 128.477185 260.244301 
L 129.009394 235.964637 
L 129.186798 232.713915 
L 129.364201 232.238774 
L 129.541604 234.764754 
L 129.906965 245.976163 
L 130.616578 272.072968 
L 130.793982 273.527708 
L 130.98194 272.025718 
L 131.514149 261.532304 
L 131.868956 247.208217 
L 132.161245 227.544331 
L 132.338648 222.975778 
L 132.516051 224.734109 
L 132.870858 244.95031 
L 133.236219 264.340799 
L 133.413622 267.804857 
L 133.591026 268.651597 
L 133.768429 268.156238 
L 133.945832 266.874928 
L 134.363359 259.329096 
L 134.895569 242.590862 
L 135.072972 243.318042 
L 135.615736 257.752627 
L 135.793139 257.320788 
L 136.502753 242.772169 
L 136.680156 243.431358 
L 136.742876 245.093139 
L 137.275086 249.021545 
L 138.047419 261.629171 
L 138.224822 262.340572 
L 138.402225 261.350335 
L 138.757032 257.595321 
L 138.871918 257.318974 
L 139.226724 260.160597 
L 139.404127 260.092642 
L 140.176461 248.461006 
L 140.353864 250.196791 
L 141.000959 267.351482 
L 141.533169 270.214382 
L 141.710572 270.601271 
L 141.887976 268.460569 
L 142.128099 262.484674 
L 142.660309 241.121266 
L 142.837712 241.214814 
L 143.015115 246.040069 
L 143.55788 267.597871 
L 143.735283 270.168048 
L 143.912686 270.421457 
L 144.267493 267.765868 
L 144.737185 262.301608 
L 145.091992 258.675417 
L 145.269395 258.298266 
L 145.509518 259.786781 
L 146.219131 271.973474 
L 146.51142 272.628504 
L 146.688824 272.771786 
L 146.866227 272.648153 
L 147.04363 271.738199 
L 147.815963 261.802772 
L 147.993367 261.843434 
L 148.348173 266.861372 
L 148.817865 275.271778 
L 148.995269 275.701721 
L 149.172672 274.719778 
L 149.527478 271.25631 
L 149.945005 269.835205 
L 150.299812 269.076651 
L 150.654618 268.489141 
L 150.769504 268.930077 
L 151.12431 271.971286 
L 151.479117 274.96792 
L 151.65652 275.333783 
L 151.896644 275.167301 
L 152.428853 273.947969 
L 152.78366 272.504754 
L 153.075949 271.12462 
L 153.253352 271.290935 
L 153.430755 272.323843 
L 154.025685 277.222726 
L 154.203089 277.646892 
L 154.380492 277.26145 
L 154.735298 276.208424 
L 154.912702 276.22137 
L 155.027587 276.402892 
L 155.204991 276.433158 
L 155.382394 276.188204 
L 155.914604 274.949567 
L 156.154727 274.875924 
L 156.686937 275.326654 
L 156.86434 274.960113 
L 157.041743 274.013301 
L 157.334032 271.096285 
L 157.688839 269.571912 
L 157.866242 269.757912 
L 158.461172 271.719798 
L 158.638575 271.81611 
L 159.285671 271.225984 
L 159.817881 270.107065 
L 160.41281 268.221184 
L 160.94502 265.756706 
L 161.122424 265.856988 
L 161.592116 267.577145 
L 161.769519 267.168049 
L 162.719255 261.376308 
L 163.074062 260.333072 
L 163.251465 259.347484 
L 163.428869 257.675278 
L 164.253367 239.013272 
L 164.796132 218.809033 
L 165.328341 197.642895 
L 165.683148 190.834454 
L 165.860551 190.443056 
L 166.048509 191.90701 
L 166.403316 199.073925 
L 167.112929 216.886493 
L 167.655693 223.601253 
L 168.187903 227.456386 
L 168.553264 229.040252 
L 168.908071 229.611176 
L 169.085474 229.504184 
L 169.44028 228.764798 
L 169.983045 227.189994 
L 170.337851 225.595769 
L 170.870061 221.413325 
L 171.590229 215.333272 
L 172.4878 210.920823 
L 172.842606 208.784406 
L 173.02001 208.256786 
L 173.197413 208.123542 
L 173.562774 208.335188 
L 173.740177 208.232924 
L 174.094984 207.329737 
L 174.627194 205.55412 
L 174.815152 205.594067 
L 174.992555 206.296442 
L 176.119695 214.884119 
L 177.194669 224.438325 
L 177.726879 228.533311 
L 178.259088 231.877641 
L 178.979256 237.74932 
L 179.511466 240.797499 
L 180.231634 246.24544 
L 180.951801 249.330231 
L 181.484011 252.341406 
L 181.838818 253.411997 
L 182.256344 254.538087 
L 182.788554 256.283367 
L 183.080843 256.844981 
L 183.43565 257.911775 
L 184.207983 261.202562 
L 184.562789 261.75368 
L 184.917596 262.121052 
L 185.209885 263.021786 
L 185.564691 263.810813 
L 185.919498 264.206563 
L 186.691831 264.720011 
L 187.046638 265.510633 
L 187.51633 267.142389 
L 187.693733 267.226497 
L 188.048539 266.584797 
L 188.466066 265.727691 
L 188.643469 265.500822 
L 188.820873 265.550514 
L 189.175679 266.326767 
L 189.467968 267.426579 
L 190.000178 268.956839 
L 190.177581 269.039171 
L 190.595108 268.58621 
L 190.949914 268.017396 
L 191.127318 268.101425 
L 191.59701 268.825456 
L 192.306623 269.19494 
L 193.611166 270.472574 
L 193.903455 270.084185 
L 194.080858 269.987199 
L 195.207998 270.344169 
L 195.740208 270.785442 
L 196.032497 270.435706 
L 196.74211 268.99825 
L 197.159636 268.792126 
L 197.514443 268.827095 
L 197.691846 268.684149 
L 198.338942 267.465189 
L 198.516345 267.540213 
L 198.871151 268.294738 
L 199.820888 270.233252 
L 200.113177 270.303649 
L 200.467983 270.610846 
L 200.645387 270.519556 
L 201.000193 269.425543 
L 201.41772 268.238564 
L 201.595123 268.251722 
L 201.94993 269.580108 
L 202.242219 270.747295 
L 202.419622 270.765628 
L 202.774428 270.045717 
L 203.129235 269.368697 
L 203.369358 269.396231 
L 204.078971 270.258891 
L 204.256375 270.160195 
L 204.726067 268.859686 
L 205.080873 266.804108 
L 206.385416 257.274068 
L 206.500302 257.12565 
L 206.677705 257.626998 
L 207.387318 261.183905 
L 207.804845 262.506132 
L 208.629344 266.144466 
L 208.806747 266.190774 
L 208.98415 265.893926 
L 209.756483 263.31261 
L 209.933887 263.379454 
L 210.466097 264.371243 
L 210.6435 264.280693 
L 211.113192 263.212312 
L 211.467999 262.324412 
L 212.240332 259.356398 
L 212.595138 258.949128 
L 212.772542 258.858695 
L 213.06483 257.853125 
L 214.19197 251.838786 
L 214.901583 249.185443 
L 215.016469 249.171695 
L 215.193872 249.598023 
L 215.726082 251.423449 
L 215.903485 251.20538 
L 216.143609 250.248327 
L 216.675818 245.78996 
L 216.853222 245.467631 
L 217.030625 246.199622 
L 217.500317 251.856743 
L 217.855124 254.670242 
L 218.032527 255.284813 
L 218.27265 255.477702 
L 218.450054 255.35935 
L 218.80486 254.451642 
L 219.159667 252.664716 
L 219.629359 247.94699 
L 219.984165 246.153126 
L 220.161569 246.440704 
L 220.401692 247.342885 
L 220.756499 249.396085 
L 220.933902 249.819813 
L 221.111305 249.629834 
L 221.288708 248.90852 
L 221.758401 245.574863 
L 221.935804 244.861843 
L 222.113207 244.732019 
L 222.29061 245.278618 
L 222.530734 246.438108 
L 223.532636 254.733992 
L 224.419652 257.254917 
L 224.837179 259.184899 
L 225.369389 261.369931 
L 225.839081 262.837765 
L 226.548694 265.287102 
L 227.143624 266.210768 
L 228.500332 266.676464 
L 228.917859 266.444062 
L 229.627472 265.606365 
L 230.274568 265.293398 
L 231.046901 264.02623 
L 231.756514 263.47184 
L 232.226206 262.459912 
L 232.403609 262.456892 
L 232.581013 262.7612 
L 233.175942 264.838848 
L 234.355248 270.483731 
L 234.710054 270.646379 
L 235.064861 270.717677 
L 235.837194 271.16629 
L 236.192001 270.653618 
L 236.484289 269.813248 
L 236.839096 269.442493 
L 237.193903 269.723731 
L 237.611429 270.241221 
L 238.321042 271.455969 
L 238.435928 271.462419 
L 238.968138 270.985834 
L 239.145541 271.068959 
L 239.740471 271.741681 
L 240.095277 271.683768 
L 240.272681 271.638668 
L 240.450084 271.722221 
L 241.097179 272.92041 
L 241.274583 272.921971 
L 241.869513 272.482237 
L 242.046916 272.495999 
L 242.694011 272.94624 
L 243.403624 272.785818 
L 244.353361 273.338979 
L 245.710069 273.143207 
L 246.304999 272.98546 
L 246.952095 273.209493 
L 247.306901 273.03789 
L 247.839111 272.740956 
L 248.434041 272.804279 
L 248.966251 273.334233 
L 249.435943 273.833937 
L 249.79075 273.978907 
L 250.208276 273.844514 
L 251.095293 273.091972 
L 251.919791 272.652334 
L 252.097195 272.786373 
L 252.337318 273.11513 
L 252.869528 274.172814 
L 253.046931 274.126637 
L 253.33922 273.599449 
L 254.048833 272.527846 
L 254.46636 272.168663 
L 254.643763 272.144717 
L 254.99857 272.462215 
L 255.468262 272.847603 
L 256.000472 272.9395 
L 256.595401 273.761959 
L 256.772805 273.813801 
L 257.127611 273.43901 
L 257.482418 273.116126 
L 258.129513 273.365244 
L 258.724443 273.077489 
L 258.901846 273.104335 
L 259.07925 273.301306 
L 259.434056 274.229721 
L 259.903748 275.49363 
L 260.081152 275.474041 
L 261.030888 274.438095 
L 261.385695 274.63023 
L 262.03279 275.183763 
L 262.387597 275.000724 
L 262.742403 274.763582 
L 262.982527 274.724003 
L 263.15993 274.830234 
L 263.984429 276.160275 
L 264.161832 275.986592 
L 264.694042 274.957454 
L 264.871445 274.956759 
L 265.111568 275.225416 
L 265.821181 276.673822 
L 267.000487 277.422215 
L 267.24061 277.259405 
L 267.950223 276.393263 
L 268.242512 276.426127 
L 269.129528 276.987296 
L 269.369652 276.793236 
L 269.724458 276.24093 
L 270.079265 276.163087 
L 270.371554 276.375752 
L 271.081167 277.28044 
L 271.25857 277.071228 
L 271.498694 276.410536 
L 272.030903 273.748453 
L 272.208307 273.557506 
L 272.38571 273.798087 
L 272.855402 275.514087 
L 273.210209 276.062663 
L 273.627735 275.980972 
L 273.805139 275.945936 
L 274.337348 276.306144 
L 274.514752 276.111359 
L 274.984444 274.210534 
L 275.161847 273.91185 
L 275.33925 274.021591 
L 276.758679 277.382171 
L 276.936082 277.51756 
L 277.113486 277.41947 
L 277.468292 276.489626 
L 277.885819 275.093843 
L 278.063222 274.779561 
L 278.240625 274.914006 
L 278.772835 275.921964 
L 279.065124 276.201498 
L 279.419931 277.35212 
L 279.774737 278.346038 
L 280.01486 278.162143 
L 280.369667 277.211823 
L 280.54707 277.102103 
L 281.016762 277.557232 
L 281.371569 276.633301 
L 281.726376 275.973277 
L 281.903779 276.244452 
L 282.143902 276.918293 
L 282.676112 278.971849 
L 282.853515 279.182118 
L 283.030919 279.209593 
L 283.323207 278.557101 
L 283.855417 277.151647 
L 284.032821 277.067973 
L 284.272944 277.219531 
L 284.805154 278.073148 
L 285.15996 278.252554 
L 285.452249 278.639872 
L 285.629652 278.656577 
L 285.984459 278.161972 
L 287.111599 276.299386 
L 287.289002 276.255505 
L 287.581291 276.844347 
L 287.936097 277.684294 
L 288.113501 277.839387 
L 288.290904 277.772429 
L 288.531027 277.503655 
L 289.063237 276.405725 
L 289.24064 276.337254 
L 289.418044 276.492499 
L 289.710333 277.116474 
L 289.887736 277.309239 
L 290.065139 277.277805 
L 290.419946 276.500888 
L 291.014876 275.178985 
L 291.192279 275.191113 
L 291.369682 275.628688 
L 291.547085 276.631217 
L 292.548987 290.271882 
L 293.498724 297.793636 
L 293.676127 297.745649 
L 294.145819 294.615971 
L 294.500626 290.03594 
L 294.918153 284.834112 
L 295.095556 283.60467 
L 295.272959 284.112984 
L 295.627766 289.705477 
L 296.097458 296.716813 
L 296.274861 296.783604 
L 296.629668 295.028671 
L 298.2265 283.341304 
L 298.936113 277.385417 
L 299.708446 275.342479 
L 300.178138 273.83623 
L 300.355541 273.850314 
L 300.710348 274.305183 
L 301.065154 275.189583 
L 301.837488 277.286709 
L 302.192294 276.639609 
L 302.484583 276.168921 
L 302.83939 275.90562 
L 303.194196 275.636891 
L 303.434319 275.960715 
L 304.436221 280.531166 
L 304.613625 280.638124 
L 304.791028 280.510932 
L 305.145835 279.682124 
L 305.563361 278.556581 
L 305.740764 278.158093 
L 305.918168 278.043269 
L 306.095571 278.288088 
L 306.742666 280.309551 
L 306.92007 280.22258 
L 307.274876 279.080485 
L 307.45228 278.407918 
L 307.869806 277.75045 
L 308.047209 277.688777 
L 308.224613 277.79437 
L 308.579419 278.683464 
L 308.871708 279.915574 
L 309.581321 282.536442 
L 309.821445 282.561842 
L 309.998848 281.935363 
L 310.708461 277.632619 
L 310.823347 277.667203 
L 311.178153 278.137811 
L 311.53296 277.952443 
L 311.710363 278.212168 
L 311.950486 278.847684 
L 312.305293 280.455419 
L 312.482696 280.824317 
L 312.660099 280.708963 
L 312.837503 280.430616 
L 312.952388 280.472279 
L 313.307195 281.825837 
L 313.839405 284.075448 
L 314.079528 284.445571 
L 314.256931 284.484411 
L 314.434335 284.136513 
L 314.789141 282.020904 
L 315.08143 279.606536 
L 315.258833 279.249324 
L 315.791043 279.873593 
L 316.385973 279.146544 
L 316.563376 279.510555 
L 317.210472 282.00128 
L 317.565278 281.460884 
L 317.742682 281.622095 
L 318.097488 282.515991 
L 318.869821 283.458046 
L 319.224628 285.484694 
L 319.339514 286.667697 
L 319.516917 287.093213 
L 319.69432 286.374969 
L 320.22653 281.181392 
L 320.466653 280.862153 
L 320.998863 282.532621 
L 321.176266 281.938889 
L 321.468555 280.403393 
L 321.645959 280.8479 
L 322.000765 282.92751 
L 322.178168 283.000534 
L 322.595695 280.529236 
L 322.950502 278.008825 
L 323.127905 277.792946 
L 323.597597 278.849533 
L 323.775 278.714758 
L 324.484613 276.464417 
L 324.724737 277.023057 
L 325.43435 280.836869 
L 325.611753 280.822907 
L 325.904042 280.470638 
L 326.081445 280.511858 
L 326.436252 280.799374 
L 326.613655 280.631987 
L 326.853779 280.037116 
L 327.385988 277.912455 
L 327.563392 277.975865 
L 327.740795 278.481345 
L 328.033084 279.836793 
L 328.210487 280.034251 
L 328.38789 279.776144 
L 328.98282 278.287 
L 329.160224 278.234027 
L 329.337627 278.71734 
L 329.869837 281.060631 
L 329.984722 280.922468 
L 330.339529 278.623319 
L 330.694335 276.410051 
L 330.871739 276.440684 
L 331.111862 277.228985 
L 332.113764 284.104786 
L 332.291167 284.373033 
L 332.46857 284.188903 
L 333.240904 281.977116 
L 333.418307 282.017023 
L 333.773113 283.470994 
L 334.12792 286.132225 
L 334.242806 287.434463 
L 334.420209 287.700811 
L 334.597612 286.534538 
L 335.129822 280.532767 
L 335.369945 280.269135 
L 335.547349 281.662354 
L 336.079558 288.344404 
L 336.256962 288.423362 
L 337.08146 280.553279 
L 337.258864 280.743461 
L 337.498987 281.606566 
L 338.031197 284.380811 
L 338.2086 284.280525 
L 338.386003 283.162558 
L 338.678292 279.733801 
L 339.033099 277.76134 
L 339.982835 274.939341 
L 340.160239 274.993899 
L 340.515045 276.649344 
L 340.807334 278.447508 
L 340.984737 278.944039 
L 341.162141 278.991069 
L 341.757071 277.101177 
L 341.934474 277.600916 
L 342.466684 282.461771 
L 342.644087 282.257851 
L 342.936376 279.686897 
L 343.113779 279.14503 
L 343.291182 279.890323 
L 343.645989 283.770415 
L 343.886112 284.897793 
L 344.063516 284.574095 
L 344.418322 280.849768 
L 344.773129 277.299835 
L 344.888014 276.699402 
L 345.065418 276.672462 
L 345.242821 276.465624 
L 345.420224 275.348628 
L 345.775031 271.180622 
L 346.015154 269.969912 
L 346.192557 270.238007 
L 346.547364 274.303051 
L 346.90217 277.541789 
L 347.017056 277.54615 
L 347.549266 276.011303 
L 347.726669 275.760738 
L 347.904072 275.09837 
L 348.144196 273.683511 
L 348.676406 268.126103 
L 348.853809 267.479605 
L 349.031212 268.17689 
L 349.323501 272.153335 
L 349.678308 274.597195 
L 349.855711 274.640555 
L 350.273238 273.718714 
L 350.450641 273.79751 
L 351.160254 276.891469 
L 352.579683 270.013929 
L 352.757086 269.754965 
L 352.934489 270.307147 
L 353.289296 273.965458 
L 353.581585 277.157704 
L 353.758988 277.567304 
L 354.291198 277.826163 
L 354.531321 277.41838 
L 354.708724 275.499697 
L 355.418337 260.311356 
L 355.533223 261.426371 
L 356.242836 275.274626 
L 356.420239 275.909301 
L 356.660363 276.259066 
L 357.015169 277.919372 
L 357.192573 278.719088 
L 357.369976 278.668562 
L 357.547379 277.242173 
L 358.194474 260.786083 
L 358.371878 259.68716 
L 358.549281 261.202552 
L 358.966808 268.303635 
L 359.321614 273.612166 
L 359.499018 273.899105 
L 359.676421 272.501034 
L 360.146113 263.345959 
L 360.323516 260.920888 
L 360.500919 260.244301 
L 360.678323 261.77904 
L 361.095849 268.2599 
L 361.450656 273.452764 
L 361.628059 274.785832 
L 361.805462 274.799442 
L 362.629961 265.850147 
L 362.807364 266.387957 
L 363.224891 268.341221 
L 363.402294 267.397714 
L 364.04939 259.484704 
L 364.226793 259.001572 
L 364.5816 255.575273 
L 364.759003 253.96095 
L 364.936406 254.227139 
L 365.17653 256.758016 
L 365.708739 267.204595 
L 365.886143 266.764279 
L 366.355835 261.030636 
L 366.533238 260.413562 
L 366.710641 259.145548 
L 367.482975 244.792135 
L 367.660378 244.99083 
L 368.015184 253.4772 
L 368.192588 257.662709 
L 368.369991 259.185586 
L 369.142324 248.645901 
L 369.319727 247.137512 
L 369.559851 243.226978 
L 369.914657 226.059711 
L 370.446867 201.480403 
L 370.812228 191.845346 
L 371.167035 165.897692 
L 371.876648 84.715715 
L 372.064606 78.379874 
L 372.242009 83.501098 
L 372.596816 122.503691 
L 373.129025 192.926014 
L 373.494387 213.429017 
L 373.67179 215.249152 
L 373.849193 211.685489 
L 374.381403 194.749932 
L 374.569361 195.647824 
L 375.278974 216.728797 
L 375.456377 213.979525 
L 375.63378 209.116844 
L 375.873904 194.819733 
L 376.22871 167.923309 
L 377.481088 34.74473 
L 377.835894 24.466364 
L 378.013298 25.36775 
L 378.201255 31.925587 
L 378.556062 60.601951 
L 379.265675 129.393759 
L 379.631036 146.466862 
L 380.163246 164.754446 
L 381.060817 203.321718 
L 381.415624 210.550583 
L 381.593027 211.3442 
L 381.77043 207.323597 
L 382.490598 181.110616 
L 382.668001 180.748885 
L 382.845404 184.664426 
L 383.388169 209.039909 
L 383.742975 225.966896 
L 383.920379 226.970885 
L 384.275185 219.694329 
L 384.463143 219.150997 
L 384.640546 222.546078 
L 385.172756 240.32945 
L 385.350159 240.683793 
L 385.71552 232.072301 
L 386.24773 220.286716 
L 386.425133 217.95991 
L 386.602537 217.676642 
L 386.77994 220.153755 
L 387.145301 230.734937 
L 387.500108 241.864151 
L 387.677511 244.742415 
L 387.854914 245.548639 
L 388.032317 245.526172 
L 388.220275 245.708861 
L 388.575082 247.647127 
L 389.107292 250.722028 
L 389.399581 251.808623 
L 389.754387 252.82225 
L 390.704124 257.844921 
L 390.881527 258.048725 
L 391.05893 257.510352 
L 391.236333 255.421383 
L 391.706026 240.31812 
L 391.883429 237.534278 
L 392.060832 236.882964 
L 392.238235 237.30933 
L 392.603597 238.466348 
L 392.958403 238.029518 
L 393.31321 240.948943 
L 393.490613 238.94371 
L 394.388184 199.758119 
L 394.565587 205.01077 
L 394.920394 221.019371 
L 395.108352 224.886106 
L 395.285755 226.198385 
L 395.463158 224.934999 
L 395.640561 220.052362 
L 396.360729 179.384548 
L 396.538132 179.627667 
L 397.070342 191.499464 
L 397.247745 189.058699 
L 397.613107 171.673785 
L 398.145316 127.363312 
L 398.677526 74.848791 
L 399.042887 61.767794 
L 399.220291 64.107993 
L 399.575097 82.947672 
L 399.929904 100.518817 
L 400.117862 101.610338 
L 400.295265 100.329464 
L 400.472668 101.876315 
L 400.650071 109.255661 
L 401.182281 155.399997 
L 401.245001 165.285518 
L 401.422405 167.91298 
L 401.777211 167.047981 
L 401.954614 166.876319 
L 402.132018 165.332713 
L 402.497379 158.61014 
L 402.674782 157.73379 
L 402.852185 161.636333 
L 403.206992 183.88489 
L 403.561798 207.45844 
L 403.749756 213.378879 
L 403.927159 215.414096 
L 404.104563 213.913973 
L 404.636773 199.175182 
L 404.814176 199.443353 
L 405.002134 204.473546 
L 405.35694 219.121363 
L 405.534344 221.651314 
L 405.711747 218.402059 
L 406.066553 199.177767 
L 406.609318 160.295677 
L 406.786721 154.87326 
L 406.964124 155.873101 
L 407.684292 183.1899 
L 407.861695 181.338708 
L 408.571308 162.433371 
L 409.114073 148.444304 
L 409.291476 148.324163 
L 409.468879 151.597911 
L 411.076063 198.478428 
L 411.441424 200.176382 
L 411.618828 202.599803 
L 411.973634 214.144679 
L 412.516399 235.764767 
L 412.693802 238.793977 
L 412.871205 239.670801 
L 413.226012 239.600488 
L 413.403415 239.69502 
L 413.580818 239.299561 
L 413.768776 237.846765 
L 414.123583 230.716748 
L 414.655792 215.050566 
L 415.021154 210.391365 
L 415.198557 209.658599 
L 415.37596 210.653003 
L 415.730767 218.530764 
L 416.148293 228.696099 
L 416.325697 225.636231 
L 417.212713 194.684926 
L 417.578074 185.969826 
L 418.110284 171.926826 
L 418.287687 170.93182 
L 418.830452 175.494709 
L 419.007855 173.973438 
L 419.362661 168.437264 
L 419.540065 167.333792 
L 419.717468 168.534318 
L 420.437636 181.843587 
L 420.615039 181.916707 
L 420.969845 180.336962 
L 421.157803 180.549271 
L 421.335207 182.609742 
L 421.690013 193.619469 
L 422.410181 226.266629 
L 422.764987 233.37156 
L 423.297197 238.012296 
L 423.4746 238.354896 
L 423.662558 237.728178 
L 424.549575 231.093249 
L 425.092339 229.965339 
L 425.447146 227.781593 
L 425.801952 223.213659 
L 426.167313 214.251096 
L 426.52212 198.875114 
L 427.231733 161.184006 
L 427.419691 156.770245 
L 427.597094 156.073504 
L 427.774497 159.030681 
L 428.672068 187.123038 
L 428.849471 187.252975 
L 429.381681 183.291976 
L 429.559085 184.358109 
L 429.924446 191.871432 
L 431.051585 224.710678 
L 431.228989 224.194813 
L 431.583795 219.676696 
L 431.938602 211.924544 
L 432.658769 193.445421 
L 432.836173 192.345633 
L 433.013576 193.575344 
L 433.55634 201.853087 
L 433.733744 201.184738 
L 433.911147 197.106155 
L 434.62076 171.034397 
L 435.163524 164.199675 
L 435.518331 148.852622 
L 436.415902 88.820814 
L 436.593305 84.093823 
L 436.770708 83.851407 
L 436.948112 88.014464 
L 437.313473 106.839671 
L 438.200489 164.283769 
L 438.56585 174.628505 
L 438.920657 178.599065 
L 439.275463 182.09846 
L 439.995631 190.760238 
L 440.173034 191.178263 
L 440.350438 190.370178 
L 440.705244 185.186902 
L 441.602815 167.573278 
L 441.957622 160.890311 
L 442.500386 144.34816 
L 443.209999 119.870298 
L 443.57536 115.069525 
L 443.752764 115.467169 
L 444.10757 119.903802 
L 444.462377 123.707851 
L 444.63978 123.549336 
L 445.005141 119.886906 
L 445.182544 118.12977 
L 445.359948 117.541903 
L 445.537351 118.459767 
L 445.892157 124.052039 
L 446.132281 132.371864 
L 446.841894 154.035647 
L 447.384658 169.681598 
L 447.739465 174.556968 
L 447.916868 173.273845 
L 448.459633 162.860759 
L 448.637036 163.28859 
L 448.814439 167.410601 
L 449.71201 199.804926 
L 450.066817 204.140809 
L 450.24422 204.910607 
L 450.421623 204.800947 
L 450.599026 203.765392 
L 450.964387 198.550882 
L 451.319194 188.624295 
L 452.028807 166.726979 
L 452.216765 165.901324 
L 452.394168 167.784899 
L 453.103781 182.914263 
L 453.281185 182.12186 
L 453.469142 177.970801 
L 453.823949 161.281488 
L 454.356159 136.771527 
L 454.533562 135.203789 
L 454.72152 137.900475 
L 455.076326 152.482756 
L 455.78594 183.491787 
L 456.151301 191.698849 
L 456.328704 193.806429 
L 456.506107 194.444801 
L 456.683511 193.648032 
L 457.226275 188.488671 
L 457.403678 188.729302 
L 457.581081 190.843798 
L 458.113291 204.611039 
L 458.478652 212.709855 
L 458.656056 214.725703 
L 458.833459 214.92008 
L 459.010862 213.246336 
L 459.73103 202.65298 
L 459.908433 203.177469 
L 460.26324 208.29922 
L 460.618046 212.866874 
L 460.79545 212.402524 
L 461.745186 160.272674 
L 462.110547 153.647699 
L 462.465354 151.802749 
L 462.642757 151.890308 
L 462.82016 153.825901 
L 463.174967 165.62056 
L 463.895134 193.422925 
L 464.427344 203.428015 
L 464.792705 207.291919 
L 464.970109 208.4178 
L 465.147512 208.768446 
L 465.324915 207.915603 
L 465.502318 205.368356 
L 466.399889 185.67813 
L 466.577293 188.585244 
L 467.652267 220.366157 
L 467.82967 221.273769 
L 468.007073 221.194721 
L 468.184477 220.904111 
L 468.372435 221.146342 
L 468.549838 222.355782 
L 469.624812 234.986203 
L 470.334425 238.416286 
L 471.054593 240.79522 
L 471.764206 242.888014 
L 471.941609 243.059431 
L 472.129567 242.838955 
L 472.484374 241.138655 
L 473.559348 233.990899 
L 473.736751 233.730144 
L 473.914154 234.180846 
L 474.268961 237.257968 
L 474.989129 244.875992 
L 475.343935 246.541639 
L 475.698742 247.700789 
L 475.761462 248.298229 
L 476.116268 249.294203 
L 476.471075 249.750529 
L 477.066005 250.13538 
L 477.775618 251.536237 
L 478.067907 252.584315 
L 478.24531 252.980005 
L 478.422713 252.538273 
L 478.600117 250.564422 
L 479.320284 236.799698 
L 479.497687 237.457843 
L 480.395258 250.33492 
L 480.572662 249.935565 
L 480.750065 248.744151 
L 480.927468 246.579459 
L 481.282275 236.839628 
L 481.647636 216.007734 
L 482.179846 178.546817 
L 482.357249 172.555497 
L 482.534652 171.769509 
L 482.712056 175.624598 
L 483.25482 200.064165 
L 483.78703 219.204425 
L 484.152391 225.830276 
L 484.507197 229.984614 
L 484.684601 230.727004 
L 484.862004 229.300829 
L 485.216811 217.935557 
L 485.582172 204.14961 
L 485.759575 202.013213 
L 485.936978 204.592264 
L 487.011952 240.052741 
L 487.189356 241.013275 
L 487.366759 241.271387 
L 487.721565 241.227504 
L 487.909523 241.313037 
L 488.086927 241.248291 
L 488.26433 240.634039 
L 488.619136 236.972968 
L 488.973943 232.561472 
L 489.161901 231.918288 
L 489.339304 232.830909 
L 489.871514 238.812595 
L 490.048917 238.833509 
L 490.22632 236.881395 
L 490.591682 226.517944 
L 491.301295 197.112348 
L 491.478698 196.753587 
L 491.718821 207.966142 
L 492.251031 229.272058 
L 492.428434 231.584205 
L 492.605838 230.457645 
L 492.793796 225.822239 
L 493.148602 207.187913 
L 493.680812 177.501824 
L 494.046173 171.062298 
L 494.223576 167.874029 
L 494.40098 159.840267 
L 494.755786 120.731882 
L 495.110593 72.368208 
L 495.298551 60.78991 
L 495.475954 63.185408 
L 495.83076 101.76501 
L 496.36297 165.083713 
L 496.905735 193.168052 
L 497.437944 208.481883 
L 497.803306 214.534644 
L 498.158112 217.682431 
L 498.335515 218.222373 
L 498.512919 218.196414 
L 498.867725 217.169709 
L 499.233086 215.250376 
L 499.41049 213.39378 
L 499.765296 205.770583 
L 500.662867 178.207183 
L 500.84027 178.470522 
L 501.195077 184.639868 
L 501.560438 189.781286 
L 501.737841 189.618248 
L 501.915245 187.297536 
L 502.812815 166.677872 
L 502.990219 166.056594 
L 503.522429 167.498263 
L 503.699832 167.030739 
L 504.242596 164.106409 
L 504.419999 163.96917 
L 504.597403 164.441188 
L 504.952209 166.428755 
L 505.31757 170.325906 
L 506.622113 193.370401 
L 507.331727 206.679275 
L 508.229297 217.091699 
L 508.761507 221.474922 
L 509.836481 227.884988 
L 510.201843 231.126104 
L 510.379246 231.524097 
L 510.556649 230.350914 
L 510.734052 227.234367 
L 511.088859 214.082626 
L 511.98643 166.018674 
L 512.163833 165.734632 
L 512.341236 169.741076 
L 513.238807 199.244473 
L 513.593614 203.451653 
L 514.136378 205.875102 
L 514.313782 206.258372 
L 514.491185 205.830722 
L 514.845991 201.817803 
L 515.211353 196.695535 
L 515.566159 194.673237 
L 515.743562 194.353458 
L 515.920966 193.571866 
L 516.818537 185.145168 
L 517.173343 182.443273 
L 517.716108 180.4779 
L 517.893511 178.633178 
L 518.248317 169.727325 
L 518.968485 144.712837 
L 519.323292 139.284421 
L 519.500695 139.466444 
L 519.855501 143.918211 
L 520.220863 148.243472 
L 520.398266 148.98679 
L 520.753072 149.462608 
L 521.107879 150.768013 
L 521.285282 150.441337 
L 521.525406 146.462617 
L 521.880212 143.415039 
L 522.057615 144.451853 
L 524.207564 176.653627 
L 524.384967 177.080798 
L 524.56237 178.15161 
L 524.917177 183.901472 
L 525.459941 192.769798 
L 525.637345 193.844351 
L 525.814748 194.17628 
L 525.992151 194.189348 
L 526.169554 194.515864 
L 526.357512 195.709387 
L 526.712319 201.165045 
L 527.244529 210.475358 
L 528.1421 217.429644 
L 528.496906 218.448908 
L 528.862267 218.738153 
L 529.03967 218.807213 
L 529.217074 218.668736 
L 529.394477 217.827787 
L 529.749284 212.555711 
L 530.469451 198.915442 
L 530.824258 182.812199 
L 531.367022 153.865352 
L 531.544425 151.114834 
L 531.721829 153.454076 
L 532.076635 168.745218 
L 532.796803 205.846442 
L 533.151609 212.554918 
L 533.329013 212.094049 
L 533.683819 209.705345 
L 533.871777 210.936363 
L 534.226584 216.65266 
L 534.403987 217.733474 
L 534.58139 216.794346 
L 534.936197 210.411322 
L 535.301558 199.641061 
L 535.656364 178.214489 
L 536.428698 112.20718 
L 536.606101 111.279431 
L 536.783504 115.715419 
L 537.138311 134.044078 
L 537.858478 177.646436 
L 538.213285 189.26933 
L 538.390688 191.498034 
L 538.568091 190.640913 
L 538.756049 186.644325 
L 539.288259 168.31746 
L 539.465662 166.997809 
L 539.643066 170.154271 
L 540.008427 187.705855 
L 540.363233 208.1576 
L 540.540637 213.69291 
L 540.71804 215.417681 
L 540.895443 215.29564 
L 541.072846 215.473236 
L 541.260804 217.300432 
L 541.615611 224.255197 
L 541.793014 221.897626 
L 541.970417 213.044649 
L 542.325224 176.143478 
L 542.513182 146.937618 
L 542.513182 146.937618 
" clip-path="url(#p8fc0fc0f2e)" style="fill: none; stroke: #000000; stroke-width: 2; stroke-linecap: square"/>
   </g>
   <g id="patch_4">
    <path d="M 66.09 311.46 
L 66.09 10.8 
" style="fill: none; stroke: #000000; stroke-width: 2; stroke-linejoin: miter; stroke-linecap: square"/>
   </g>
   <g id="patch_5">
    <path d="M 565.2 311.46 
L 565.2 10.8 
" style="fill: none; stroke: #000000; stroke-width: 2; stroke-linejoin: miter; stroke-linecap: square"/>
   </g>
   <g id="patch_6">
    <path d="M 66.09 311.46 
L 565.2 311.46 
" style="fill: none; stroke: #000000; stroke-width: 2; stroke-linejoin: miter; stroke-linecap: square"/>
   </g>
   <g id="patch_7">
    <path d="M 66.09 10.8 
L 565.2 10.8 
" style="fill: none; stroke: #000000; stroke-width: 2; stroke-linejoin: miter; stroke-linecap: square"/>
   </g>
  </g>
 </g>
 <defs>
  <clipPath id="p8fc0fc0f2e">
   <rect x="66.09" y="10.8" width="499.11" height="300.66"/>
  </clipPath>
 </defs>
</svg>
